<!-- Generated by IcoMoon.io -->
<svg fill="currentColor" version="1.1" xmlns="http://www.w3.org/2000/svg" width="24" height="24" viewBox="0 0 24 24">
<title>american_football</title>
<path d="M13.559 6.166c-0.134 0.169-0.333 0.258-0.533 0.258-0.149 0-0.299-0.049-0.423-0.149l-0.744-0.591c-0.405 0.317-0.811 0.635-1.203 0.987l0.545 0.434c0.295 0.234 0.343 0.662 0.109 0.956-0.134 0.169-0.333 0.258-0.533 0.258-0.149 0-0.298-0.049-0.423-0.148l-0.678-0.54c-0.357 0.359-0.702 0.73-1.040 1.115l0.553 0.439c0.295 0.234 0.343 0.663 0.109 0.957-0.134 0.169-0.333 0.258-0.533 0.258-0.149 0-0.299-0.049-0.423-0.149l-0.593-0.472c-0.313 0.396-0.604 0.815-0.895 1.231l0.76 0.605c0.294 0.233 0.343 0.662 0.109 0.956-0.134 0.169-0.333 0.258-0.533 0.258-0.149 0-0.298-0.049-0.423-0.149l-2.050-1.63c-0.295-0.234-0.343-0.662-0.11-0.956s0.663-0.343 0.957-0.11l0.224 0.179c0.294-0.416 0.582-0.835 0.896-1.231l-0.391-0.311c-0.294-0.234-0.343-0.662-0.109-0.956 0.234-0.296 0.663-0.344 0.956-0.11l0.432 0.343c0.336-0.386 0.678-0.761 1.033-1.122l-0.298-0.237c-0.295-0.233-0.343-0.662-0.11-0.956s0.663-0.343 0.957-0.109l0.432 0.343c0.386-0.354 0.785-0.679 1.185-1l-0.217-0.173c-0.295-0.234-0.343-0.662-0.11-0.956 0.234-0.296 0.664-0.344 0.957-0.11l2.050 1.631c0.294 0.233 0.343 0.662 0.109 0.956zM20.19 1.338c-1.147-0.241-2.336-0.369-3.562-0.332-8.323 0.248-14.87 7.196-14.622 15.519 0.046 1.551 0.326 3.039 0.803 4.435 1.148 0.241 2.337 0.369 3.562 0.332 8.323-0.248 14.87-7.196 14.622-15.519-0.046-1.551-0.326-3.039-0.803-4.435z"></path>
</svg>
