<!-- Generated by IcoMoon.io -->
<svg fill="currentColor" version="1.1" xmlns="http://www.w3.org/2000/svg" width="24" height="24" viewBox="0 0 24 24">
<title>badminton</title>
<path d="M22.058 20.36l-3.458-3.521c-0.15-0.151-0.357-0.245-0.587-0.245-0.16 0-0.31 0.046-0.437 0.125l0.003-0.002c-1.055-1.924-1.936-4.152-2.527-6.496l-0.042-0.197c-0.506-2.359-1.47-4.436-2.801-6.225l0.030 0.042c-0.367-0.533-0.787-0.993-1.262-1.39l-0.011-0.009c-0.666-0.586-1.546-0.943-2.509-0.943-0.026 0-0.052 0-0.078 0.001l0.004-0c-1.851 0.073-3.504 0.863-4.7 2.098l-0.002 0.002c-2.308 2.27-2.87 5.458-1.283 7.266 0.399 0.482 0.853 0.899 1.356 1.249l0.022 0.015c1.528 1.212 3.344 2.135 5.326 2.651l0.101 0.022c0.223 0.041 0.42 0.099 0.608 0.175l-0.021-0.007c2.574 0.686 4.825 1.619 6.914 2.805l-0.143-0.075c-0.082 0.127-0.131 0.282-0.131 0.449 0 0.225 0.090 0.43 0.235 0.58l-0-0 3.458 3.521c0.15 0.154 0.359 0.249 0.591 0.249 0.224 0 0.428-0.090 0.577-0.235l-0 0 0.759-0.743c0.15-0.149 0.243-0.356 0.243-0.585 0-0.225-0.090-0.429-0.236-0.577l0 0zM14.258 11.592c-0.003 0.408-0.057 0.802-0.155 1.178l0.007-0.033-0.813-0.829 0.64-0.627 0.262 0.271c0.017 0.015 0.036 0.028 0.057 0.039l0.002 0.001zM6.752 7.369l0.64-0.632 0.961 0.978c-0.212 0.209-0.427 0.42-0.64 0.627-0.327-0.331-0.647-0.661-0.962-0.972zM7.298 8.758c-0.218 0.212-0.43 0.425-0.64 0.632-0.325-0.339-0.647-0.666-0.96-0.986l0.64-0.632zM8.764 8.136l0.961 0.975-0.64 0.632c-0.319-0.324-0.643-0.653-0.961-0.98zM9.181 7.727l0.64-0.628 0.961 0.98-0.64 0.627zM11.191 8.493l0.959 0.975-0.64 0.632-0.958-0.981zM12.561 9.889l0.961 0.98-0.64 0.627-0.96-0.983zM11.608 8.083l0.64-0.632 0.961 0.98-0.64 0.632c-0.302-0.312-0.626-0.641-0.961-0.983zM11.196 7.666c-0.316-0.321-0.64-0.65-0.961-0.98l0.64-0.632 0.961 0.98zM9.827 6.27c-0.327-0.331-0.65-0.661-0.961-0.98l0.64-0.632 0.961 0.981c-0.202 0.195-0.414 0.407-0.64 0.63zM9.409 6.678c-0.208 0.205-0.422 0.414-0.64 0.627l-0.961-0.979 0.639-0.627zM7.4 5.912l-0.962-0.98 0.64-0.627 0.961 0.98c-0.209 0.202-0.422 0.413-0.639 0.627zM6.983 6.321l-0.64 0.632c-0.342-0.347-0.665-0.679-0.961-0.98l0.64-0.627zM5.926 7.357c-0.218 0.212-0.43 0.425-0.64 0.632-0.344-0.349-0.668-0.684-0.961-0.981l0.64-0.632zM4.871 8.396c-0.226 0.22-0.438 0.43-0.64 0.627-0.349-0.355-0.676-0.686-0.961-0.98l0.64-0.627zM5.28 8.813l0.961 0.98c-0.226 0.22-0.438 0.43-0.64 0.627-0.327-0.331-0.65-0.661-0.961-0.98zM6.653 10.209l0.962 0.979-0.64 0.627c-0.311-0.316-0.632-0.647-0.961-0.98zM7.068 9.8l0.64-0.632 0.961 0.981-0.64 0.632c-0.313-0.327-0.637-0.655-0.962-0.982zM9.080 10.567l0.961 0.98-0.64 0.632c-0.303-0.308-0.627-0.637-0.961-0.98zM9.497 10.155l0.64-0.627 0.961 0.98-0.64 0.627c-0.307-0.314-0.631-0.644-0.96-0.98zM11.507 10.922l0.961 0.98-0.64 0.627c-0.29-0.295-0.614-0.624-0.961-0.98zM12.877 12.317l1.001 1.013c-0.076 0.138-0.166 0.257-0.271 0.361l-0 0c-0.108 0.104-0.231 0.193-0.366 0.264l-0.009 0.004s0-0.005-0.005-0.008c-0.026-0.026-0.402-0.409-0.993-1.005zM13.78 9.015c0.042 0.042 0.078 0.078 0.109 0.111l0.039 0.145c-0 0.001-0 0.003-0 0.004 0 0.030 0.004 0.060 0.010 0.088l-0-0.003c0.010 0.051 0.075 0.337 0.187 0.775 0.008 0.039 0.013 0.075 0.021 0.111l-0.208 0.205-0.956-0.979 0.64-0.632zM13.446 7.841c-0.236-0.241-0.503-0.51-0.787-0.801l0.295-0.29c0.189 0.373 0.354 0.738 0.497 1.091zM12.671 6.209l-0.422 0.414c-0.311-0.316-0.632-0.645-0.961-0.98l0.664-0.65q0.401 0.623 0.724 1.216zM10.754 3.43c0.276 0.275 0.527 0.575 0.75 0.896l0.014 0.021c0.036 0.051 0.070 0.101 0.104 0.153l-0.743 0.73c-0.327-0.331-0.65-0.664-0.961-0.98l0.722-0.715c0.047-0.038 0.080-0.072 0.114-0.106zM8.98 2.437c0.515 0.086 0.968 0.303 1.339 0.615l-0.004-0.003c-0.187 0.181-0.464 0.451-0.805 0.793-0.355-0.361-0.683-0.694-0.961-0.98zM9.093 4.248c-0.2 0.197-0.414 0.406-0.64 0.632-0.345-0.349-0.668-0.682-0.961-0.98l0.64-0.632zM8.197 2.381l-0.060 0.057c-0.018-0.018-0.036-0.036-0.051-0.054 0.036 0 0.075 0 0.111-0.003zM7.365 2.494c0.039 0.039 0.080 0.083 0.129 0.132l0.223 0.228-0.64 0.632c-0.271-0.271-0.495-0.503-0.668-0.679 0.27-0.122 0.59-0.229 0.921-0.306l0.035-0.007zM5.854 3.069c0.039 0.039 0.080 0.083 0.129 0.132l0.679 0.689-0.64 0.627-0.938-0.962c0.221-0.161 0.474-0.323 0.737-0.47l0.038-0.019zM4.295 4.228c0.107-0.107 0.218-0.205 0.329-0.303l0.984 0.999-0.64 0.632c-0.427-0.435-0.769-0.782-0.984-1.002 0.103-0.114 0.204-0.22 0.311-0.326zM3.613 5.003c0.194 0.202 0.489 0.503 0.941 0.961l-0.64 0.632c-0.345-0.352-0.624-0.632-0.805-0.822 0.169-0.297 0.336-0.548 0.519-0.788l-0.013 0.017zM2.835 6.326l0.665 0.676-0.64 0.627c-0.132-0.135-0.248-0.251-0.347-0.355 0.087-0.364 0.198-0.68 0.335-0.981l-0.014 0.033zM2.39 8.091l0.009-0.099 0.047 0.047zM3.009 10.228c-0.302-0.372-0.511-0.832-0.582-1.336l-0.002-0.015 0.424-0.42 0.964 0.98c-0.342 0.334-0.619 0.606-0.806 0.79zM4.445 11.56c-0.050-0.036-0.101-0.070-0.15-0.107-0.335-0.243-0.63-0.5-0.901-0.78l-0.002-0.002 0.834-0.822 0.961 0.98c-0.305 0.299-0.559 0.55-0.743 0.729zM6.139 12.643c-0.402-0.226-0.803-0.474-1.204-0.741l0.661-0.65 0.957 0.975zM6.68 12.933l0.293-0.287 0.775 0.79c-0.356-0.155-0.713-0.323-1.071-0.507zM7.39 12.236l0.637-0.632 0.961 0.98-0.64 0.627c-0.288-0.292-0.614-0.623-0.961-0.979zM10.156 14.184l-0.161-0.031c-0.409-0.111-0.673-0.173-0.722-0.187-0.019-0.005-0.042-0.008-0.065-0.008-0 0-0 0-0 0h0l-0.181-0.051c-0.080-0.083-0.171-0.173-0.271-0.271l0.64-0.627 0.961 0.98zM9.817 12.594l0.64-0.632 0.961 0.98-0.64 0.632c-0.265-0.274-0.593-0.607-0.963-0.984zM11.495 14.316c-0.012-0.024-0.027-0.044-0.044-0.062l0 0-0.262-0.271 0.64-0.632 0.58 0.59c0.090 0.096 0.171 0.173 0.233 0.236-0.331 0.086-0.711 0.135-1.103 0.135-0.017 0-0.033-0-0.050-0l0.003 0zM12.831 15.038c0.54-0.119 1.009-0.371 1.388-0.72l-0.002 0.002c0.353-0.368 0.614-0.827 0.744-1.339l0.004-0.021c0.487 1.457 1.025 2.692 1.656 3.87l-0.065-0.132c-1.046-0.59-2.277-1.15-3.556-1.608l-0.172-0.054zM17.26 9.218c0.304 0.308 0.725 0.499 1.192 0.499 0.924 0 1.673-0.749 1.673-1.673 0-0.457-0.184-0.872-0.481-1.174l0 0c-0.304-0.309-0.726-0.5-1.193-0.5-0.924 0-1.673 0.749-1.673 1.673 0 0.457 0.183 0.871 0.481 1.173l-0-0z"></path>
</svg>
