<!-- Generated by IcoMoon.io -->
<svg
  version="1.1"
  xmlns="http://www.w3.org/2000/svg"
  fill="currentColor"
  width="24"
  height="24"
  viewBox="0 0 200 200"
>
  <title>bare-knuckle-boks</title>
  <path
    d="M58.59 120H70.5v18.18L87.17 120h16.33l-20.35 20.11L105.29 162h-17l-17.78-19.12V162H58.59v-42Zm49.49 42h12.09v-30.05h24.44V120h-36.54v42Z"
  ></path>
  <path
    d="M122.33 137.24v11.27h19.69v-11.27h-19.7ZM189 120v11.95h-30.14v18.53H189V162h-30.14c-6.4 0-10.8-4.78-10.8-10.67v-21.77c0-4.78 4.33-9.56 9.68-9.56H189Z"
  ></path>
  <path
    d="M11 120v42h30.92c12.07 0 12.52-5.72 12.52-12.38 0-6.79-2.65-8.96-5.13-9.5 1.99-.8 3.92-2.82 3.92-7.74 0-10.59-3.88-12.38-12.17-12.38H11Zm11.57 15.88v-4.95h17.36c1.13 0 1.78 1.22 1.82 2.39.03 1.16-.6 2.56-1.82 2.56H22.57Zm0 14.94v-4.95h18.31c1.13 0 1.78 1.22 1.82 2.39.03 1.16-.6 2.56-1.82 2.56h-18.3Z"
  ></path>
  <path
    d="M42.44 50.84c2.85 31.52 1.9 18.23 2.85 31.52.45 6.28-8.5 10.42-16.15 10.42C21.5 92.78 13 87.61 13 81.32V53.7c0-5.73 7.8-9.43 14.88-9.9 6.24-.4 14.11 2.1 14.56 7.04ZM85.8 88.61c0 2.87-8.63 8.71-16.14 8.6-7.3-.11-15.18-3.6-15.51-9.38-.95-16.67-2.22-24.45-2.22-41.16 0-4.69 6.88-9.21 13.93-9.64 7.63-.46 16.32 4.18 16.78 9.64 1.9 22.67 3.16 25.53 3.16 41.94Zm37.99-20.58V47.97c0-5.73-8.5-11.01-16.46-10.94-7.3.07-15.51 4.7-15.51 9.64 0 11.2 1.58 27.61 1.58 27.61s5.18-5.3 9.81-7.03c7.33-2.73 20.58.78 20.58.78Zm38.61 3.91V53.7c0-6.77-8.14-10.76-15.82-10.94-6.36-.15-14.56 3.65-14.56 7.56v18.75l30.39 2.87Z"
  ></path>
  <path
    d="M148.48 105.55c8.39 1.09 9.02 1.45 21.52 2.45 12.5 1 16.33-9.05 15.83-14.7-.95-10.68-11.22-13.76-20.26-14.59l-56.66-5.2s-9.6.93-12.03 10.15c-1.7 6.5 2.85 14.07 9.5 15.11 16.45 2.58 25.58 4.63 42.1 6.78Z"
  ></path>
</svg>
