<!-- Generated by IcoMoon.io -->
<svg fill="currentColor" version="1.1" xmlns="http://www.w3.org/2000/svg" width="24" height="24" viewBox="0 0 24 24">
<title>baseball</title>
<path d="M15.197 9.78c-2.403-2.403-3.862-5.172-4.255-7.66-2.151 0.318-4.224 1.293-5.879 2.949-1.555 1.555-2.517 3.476-2.892 5.485 2.559 0.323 5.452 1.811 7.946 4.306 2.495 2.494 3.983 5.387 4.306 7.946 2.009-0.375 3.93-1.337 5.485-2.892 1.656-1.655 2.631-3.728 2.949-5.879-2.488-0.393-5.257-1.852-7.66-4.255z"></path>
<path d="M13.226 3.756c0.369-0.113 0.76 0.101 0.87 0.472s-0.101 0.76-0.472 0.87l-0.158 0.047c0.318 0.598 0.694 1.196 1.127 1.784l0.185-0.165c0.29-0.258 0.733-0.23 0.989 0.058 0.256 0.289 0.23 0.731-0.058 0.988l-0.239 0.213c0.229 0.259 0.466 0.516 0.717 0.767 0.308 0.307 0.625 0.594 0.945 0.868l0.188-0.27c0.221-0.317 0.657-0.394 0.975-0.174 0.317 0.221 0.395 0.657 0.174 0.975l-0.231 0.33c0.591 0.421 1.19 0.786 1.788 1.091l0.054-0.179c0.112-0.37 0.506-0.576 0.873-0.468 0.37 0.112 0.579 0.502 0.468 0.873l-0.106 0.35c0.566 0.209 1.123 0.362 1.661 0.455 0.039-2.736-0.98-5.484-3.068-7.572s-4.836-3.107-7.573-3.068c0.104 0.6 0.289 1.225 0.538 1.86l0.353-0.105z"></path>
<path d="M12.242 21.239c-0.061 0.016-0.122 0.024-0.182 0.024-0.309 0-0.591-0.207-0.675-0.519-0.101-0.374 0.122-0.757 0.495-0.858l0.143-0.038c-0.297-0.605-0.655-1.211-1.072-1.81l-0.18 0.152c-0.131 0.111-0.291 0.165-0.45 0.165-0.2 0-0.398-0.085-0.536-0.249-0.25-0.296-0.211-0.738 0.084-0.987l0.233-0.196c-0.306-0.364-0.626-0.725-0.975-1.074-0.26-0.26-0.527-0.506-0.796-0.742l-0.161 0.253c-0.134 0.209-0.36 0.323-0.591 0.323-0.129 0-0.259-0.036-0.376-0.111-0.326-0.208-0.421-0.64-0.213-0.966l0.241-0.378c-0.561-0.41-1.131-0.773-1.702-1.078l-0.062 0.189c-0.098 0.294-0.371 0.48-0.665 0.48-0.073 0-0.147-0.012-0.22-0.036-0.367-0.121-0.566-0.517-0.444-0.884l0.111-0.336c-0.767-0.303-1.521-0.516-2.235-0.608-0.146 2.862 0.863 5.772 3.049 7.959 2.186 2.186 5.096 3.194 7.959 3.049-0.076-0.583-0.227-1.193-0.444-1.814l-0.336 0.090z"></path>
</svg>
