<svg
  xmlns="http://www.w3.org/2000/svg"
  version="1.1"
  xmlns:xlink="http://www.w3.org/1999/xlink"
  width="24"
  height="24"
  viewBox="0 0 297 297"
  xml:space="preserve"
  fill="currentColor"
>
  <g>
    <path
      d="M104.525 44.686c-1.656-3.975-4.014-7.253-7.082-9.797-10.607-8.794-30.29-7.334-36.21-6.653-29.724 21.628-51.156 53.986-58.552 91.337 18.89-36.066 56.187-63.848 101.844-74.887zM141.904 0c-21.123.927-41.113 6.283-59.068 15.161 7.63 1.101 16.023 3.768 23.026 9.574 5.424 4.497 9.351 10.286 11.785 17.288a187.868 187.868 0 0 1 24.256-2.406V0zM220.135 278.718c1.591-.771 40.152-25.365 25.503-82.477-4.162-16.226-16.118-30.468-28.503-45.619-18.84-23.051-40.194-49.175-40.73-88.281a72.416 72.416 0 0 1 .277-7.393 175.181 175.181 0 0 0-21.587-2.134V297c23.496-1.031 45.048-8.59 65.04-18.282zM155.096 0v39.617a187.833 187.833 0 0 1 24.256 2.406c2.435-7.003 6.362-12.791 11.785-17.288 7.003-5.806 15.396-8.473 23.026-9.574C196.209 6.283 176.219.927 155.096 0z"
    ></path>
    <path
      d="M2.22 175.029c2.415 26.916 16.718 50.745 33.684 70.421-3.04-13.307-3.302-30.629 2.735-52.691 5.16-18.855 17.718-34.219 31.013-50.485 18.328-22.424 37.28-45.611 37.754-80.113a60.122 60.122 0 0 0-.106-4.581C46.772 72.302-2.667 120.559 2.22 175.029zM235.6 28.114c-7.205-.714-25.977-1.611-36.086 6.812-3.047 2.539-5.392 5.805-7.039 9.761 45.657 11.039 82.954 38.82 101.845 74.887-7.411-37.422-28.91-69.832-58.72-91.46z"
    ></path>
    <path
      d="M294.78 175.029c4.887-54.47-44.552-102.726-105.08-117.449-.091 1.474-.127 3-.106 4.581.474 34.502 19.426 57.69 37.754 80.113 13.295 16.266 25.853 31.63 31.013 50.485 6.037 22.062 5.775 39.384 2.735 52.691 16.966-19.676 31.27-43.505 33.684-70.421zM75.764 278.718c20.049 9.573 42.644 17.251 66.14 18.282V52.813c-7.349.271-14.557.994-21.587 2.134.21 2.373.313 4.83.277 7.393-.536 39.106-21.889 65.23-40.73 88.281-12.384 15.151-24.269 29.412-28.503 45.619-15.493 59.311 24.005 82.288 24.403 82.478z"
    ></path>
  </g>
</svg>
