<!-- Generated by IcoMoon.io -->
<svg fill="currentColor" version="1.1" xmlns="http://www.w3.org/2000/svg" width="24" height="24" viewBox="0 0 24 24">
<title>basketball</title>
<path d="M17.64 18.96c0.109-2.453-0.174-4.552-0.754-6.309-1.671 1.336-2.547 3.506-2.805 4.258-0.663 1.931-1.486 3.253-2.276 4.168-0.032 0.001-0.063 0.005-0.095 0.005-0.561 0-1.106-0.058-1.639-0.153 0.841-0.722 1.917-2.051 2.741-4.454 0.31-0.902 1.388-3.594 3.573-5.138-0.228-0.512-0.481-0.989-0.753-1.44l-11.258 7.629c-0.277-0.349-0.528-0.72-0.754-1.107l11.26-7.631c-0.325-0.432-0.667-0.832-1.021-1.201-1.756 0.979-4.232 1.111-7.13 1.112-1.776 0.001-3.188 0.65-4.245 1.416 0.113-0.658 0.292-1.292 0.535-1.896 1.034-0.506 2.267-0.858 3.709-0.859 2.692-0.001 4.697-0.122 6.095-0.749-2.114-1.79-4.393-2.657-5.728-3.047 0.552-0.315 1.137-0.576 1.751-0.774 1.471 0.587 3.341 1.547 5.085 3.090 0.674-0.638 1.080-1.572 1.266-2.859 0.433 0.174 0.847 0.383 1.245 0.617-0.273 1.399-0.791 2.439-1.547 3.171 0.366 0.386 0.719 0.805 1.057 1.252l3.125-2.118c0.275 0.351 0.526 0.721 0.75 1.111l-3.117 2.112c0.296 0.478 0.573 0.983 0.824 1.525 0.050-0.022 0.096-0.047 0.146-0.067 1.051-0.417 2.154-0.481 3.293-0.238 0.062 0.434 0.105 0.875 0.105 1.326 0 0.028-0.005 0.055-0.005 0.082-1.022-0.294-1.995-0.282-2.901 0.075-0.048 0.019-0.088 0.051-0.135 0.071 0.578 1.613 0.918 3.495 0.96 5.646-0.407 0.503-0.861 0.965-1.361 1.375zM11.711 1c-5.907 0-10.711 4.805-10.711 10.71s4.805 10.711 10.711 10.711c5.906 0 10.71-4.805 10.71-10.711s-4.805-10.71-10.71-10.71z"></path>
</svg>
