<!-- Generated by IcoMoon.io -->
<svg
  version="1.1"
  xmlns="http://www.w3.org/2000/svg"
  fill="currentColor"
  width="24"
  height="24"
  viewBox="0 0 32 32"
>
  <title>plaj-futbolu</title>
  <path
    d="M10.7.3a10.4 10.4 0 1010.4 10.4C21.1 5 16.5.3 10.7.3zm.4 3L14.7 2l1.2.6c.4.3.8.5 1 .8h.1l.4.4h.1l.4.5.4.5.1.1.4.5-.7 3-3.6 1.3-3.4-2.8zM3 4.8l.4-.5.4-.5.5-.5 1-.7h.1l1.2-.7 3.6 1.4v3.5L7 9.6 3.4 8.4l-.7-3c0-.3.2-.4.3-.6zM2.5 16l-.3-.4L2 15l-.4-1-.2-.6-.1-.6a9 9 0 01-.2-1.1L3 9l3.6 1.2 1 4L6 16.6zM13 20.1l-.5.2H12h-.2l-.4.1H9.7l-1-.2-2-3.2 1.6-2.2h4.8l1.7 2.2zm7.2-7.3l-.1.6-.2.6-.5 1-.2.5-.4.5-3.4.6-1.7-2.3 1-4L18.3 9l2 2.5-.1 1.3v-.1zm6.2 17.3L25 23.8h-.8c-.5 0-1 .7-1 1.6l-1 6.3h2.4c1.1 0 1.8-.7 1.7-1.6zm5.3-6.1c-1.2-2-2.6-2.7-3.8-2.7 2.5-1 2.5-1.7 2.5-1.7-3.7-1.8-5.5.4-6.3 1.8-.7-1.4-2.5-3.6-6.2-1.8 0 0 0 .7 2.6 1.8-1 .1-2 .8-2.9 2.6 0 0 0 .5 2.3 0a5.1 5.1 0 00-.6 3s1.2.5 5.2-4.3c4 4.8 5.2 4.3 5.2 4.3a5 5 0 00-.6-3c2.2.5 2.6 0 2.6 0z"
  ></path>
</svg>
