
<svg width="195" height="66" viewBox="0 0 195 66" fill="none" xmlns="http://www.w3.org/2000/svg">
<path d="M2 8.93799V57.062C2 58.6533 2.63214 60.1794 3.75736 61.3046C4.88258 62.4298 6.4087 63.062 8 63.062H186.873C188.464 63.062 189.99 62.4298 191.116 61.3046C192.241 60.1794 192.873 58.6533 192.873 57.062V8.93799C192.873 7.34669 192.241 5.82057 191.116 4.69535C189.99 3.57013 188.464 2.93799 186.873 2.93799H8.001C7.21298 2.93786 6.43266 3.09295 5.70459 3.39442C4.97652 3.69589 4.31497 4.13783 3.75771 4.69499C3.20046 5.25216 2.75841 5.91364 2.45682 6.64166C2.15523 7.36968 2 8.14997 2 8.93799ZM0 8.93799C0 6.81626 0.842855 4.78142 2.34315 3.28113C3.84344 1.78084 5.87827 0.937988 8 0.937988H186.873C188.995 0.937988 191.03 1.78084 192.53 3.28113C194.03 4.78142 194.873 6.81626 194.873 8.93799V57.062C194.873 59.1837 194.03 61.2186 192.53 62.7188C191.03 64.2191 188.995 65.062 186.873 65.062H8.001C5.87927 65.062 3.84444 64.2191 2.34415 62.7188C0.843855 61.2186 0.000999987 59.1837 0.000999987 57.062L0 8.93799Z" fill="#c9c9c9"/>
<path d="M184.11 34.644H133.11C132.006 34.644 131.11 35.5394 131.11 36.644V53.644C131.11 54.7486 132.006 55.644 133.11 55.644H184.11C185.215 55.644 186.11 54.7486 186.11 53.644V36.644C186.11 35.5394 185.215 34.644 184.11 34.644Z" fill="var(--color-accent-medium, #037E21)"/>
<path d="M122.767 34.644H71.7671C70.6625 34.644 69.7671 35.5394 69.7671 36.644V53.644C69.7671 54.7486 70.6625 55.644 71.7671 55.644H122.767C123.872 55.644 124.767 54.7486 124.767 53.644V36.644C124.767 35.5394 123.872 34.644 122.767 34.644Z" fill="#c9c9c9"/>
<path d="M61.4248 34.644H10.4248C9.32024 34.644 8.4248 35.5394 8.4248 36.644V53.644C8.4248 54.7486 9.32024 55.644 10.4248 55.644H61.4248C62.5294 55.644 63.4248 54.7486 63.4248 53.644V36.644C63.4248 35.5394 62.5294 34.644 61.4248 34.644Z" fill="#c9c9c9"/>
</svg>
