<svg xmlns="http://www.w3.org/2000/svg" width="194" height="208" viewBox="0 0 194 208" fill="none">
<path d="M13.2774 30.7541H10.5677V32.7298H13.2774V30.7541ZM7.85806 30.7541H5.14838V32.7298H7.85806V30.7541ZM2.43871 32.7298V30.7541H0.00180643V33.0262H1.80826V32.7298H2.43871ZM0 35.9898V38.9533H1.80645V35.9898H0ZM0 41.9169V44.8805H1.80645V41.9169H0ZM0 47.8441V50.8077H1.80645V47.8441H0ZM0 53.7713V56.7348H1.80645V53.7713H0ZM0 59.6984V62.662H1.80645V59.6984H0ZM0 65.6256V68.5892H1.80645V65.6256H0ZM0 71.5527V74.5163H1.80645V71.5527H0ZM0 77.4799V80.4435H1.80645V77.4799H0ZM0 83.4071V86.3707H1.80645V83.4071H0ZM0 89.3342V92.2978H1.80645V89.3342H0ZM0 95.2614V98.225H1.80645V95.2614H0ZM0 101.189V104.152H1.80645V101.189H0ZM0 107.116V110.079H1.80645V107.116H0ZM0 113.043V116.006H1.80645V113.043H0ZM0 118.97V121.934H1.80645V118.97H0ZM0 124.897V127.861H1.80645V124.897H0ZM0 130.824V133.788H1.80645V130.824H0ZM0 136.752V139.715H1.80645V136.752H0ZM0 142.679V145.642H1.80645V142.679H0ZM0 148.606V151.569H1.80645V148.606H0ZM0 154.533V157.497H1.80645V154.533H0ZM0 160.46V163.424H1.80645V160.46H0ZM0 166.387V169.351H1.80645V166.387H0ZM0 172.315V175.278H1.80645V172.315H0ZM2.72774 177.234H5.43741V175.258H2.72774V177.234ZM8.14709 177.234H10.8568V175.258H8.14709V177.234Z" fill="#c9c9c9"/>
<path d="M19.7923 7.90289V55.4427C19.7923 57.0147 20.3633 58.5223 21.3796 59.6338C22.3959 60.7454 23.7744 61.3699 25.2117 61.3699H186.774C188.212 61.3699 189.59 60.7454 190.606 59.6338C191.623 58.5223 192.194 57.0147 192.194 55.4427V7.90289C192.194 6.3309 191.623 4.82331 190.606 3.71175C189.59 2.60019 188.212 1.97572 186.774 1.97572H25.2126C24.5008 1.97559 23.796 2.12881 23.1384 2.42662C22.4808 2.72443 21.8833 3.161 21.3799 3.7114C20.8766 4.2618 20.4773 4.91525 20.2049 5.63443C19.9325 6.35361 19.7923 7.12444 19.7923 7.90289ZM17.9859 7.90289C17.9859 5.80691 18.7472 3.79678 20.1023 2.3147C21.4574 0.832623 23.2953 0 25.2117 0H186.774C188.691 0 190.528 0.832623 191.884 2.3147C193.239 3.79678 194 5.80691 194 7.90289V55.4427C194 57.5387 193.239 59.5488 191.884 61.0309C190.528 62.513 188.691 63.3456 186.774 63.3456H25.2126C23.2962 63.3456 21.4583 62.513 20.1032 61.0309C18.7481 59.5488 17.9868 57.5387 17.9868 55.4427L17.9859 7.90289Z" fill="#c9c9c9"/>
<path d="M184.279 33.2968H138.214C137.216 33.2968 136.408 34.1814 136.408 35.2725V52.0662C136.408 53.1573 137.216 54.0419 138.214 54.0419H184.279C185.276 54.0419 186.085 53.1573 186.085 52.0662V35.2725C186.085 34.1814 185.276 33.2968 184.279 33.2968Z" fill="var(--color-accent-medium, #037E21)"/>
<path d="M128.872 33.2968H82.8077C81.81 33.2968 81.0012 34.1814 81.0012 35.2725V52.0662C81.0012 53.1573 81.81 54.0419 82.8077 54.0419H128.872C129.87 54.0419 130.679 53.1573 130.679 52.0662V35.2725C130.679 34.1814 129.87 33.2968 128.872 33.2968Z" fill="#c9c9c9"/>
<path d="M73.4665 33.2968H27.402C26.4044 33.2968 25.5956 34.1814 25.5956 35.2725V52.0662C25.5956 53.1573 26.4044 54.0419 27.402 54.0419H73.4665C74.4642 54.0419 75.273 53.1573 75.273 52.0662V35.2725C75.273 34.1814 74.4642 33.2968 73.4665 33.2968Z" fill="#c9c9c9"/>
<path d="M19.7923 80.2301V127.77C19.7923 129.342 20.3633 130.849 21.3796 131.961C22.3959 133.073 23.7744 133.697 25.2117 133.697H186.774C188.212 133.697 189.59 133.073 190.606 131.961C191.623 130.849 192.194 129.342 192.194 127.77V80.2301C192.194 78.6581 191.623 77.1505 190.606 76.039C189.59 74.9274 188.212 74.3029 186.774 74.3029H25.2126C24.5008 74.3028 23.796 74.456 23.1384 74.7538C22.4808 75.0516 21.8833 75.4882 21.3799 76.0386C20.8766 76.589 20.4773 77.2425 20.2049 77.9616C19.9325 78.6808 19.7923 79.4517 19.7923 80.2301ZM17.9859 80.2301C17.9859 78.1341 18.7472 76.124 20.1023 74.6419C21.4574 73.1598 23.2953 72.3272 25.2117 72.3272H186.774C188.691 72.3272 190.528 73.1598 191.884 74.6419C193.239 76.124 194 78.1341 194 80.2301V127.77C194 129.866 193.239 131.876 191.884 133.358C190.528 134.84 188.691 135.673 186.774 135.673H25.2126C23.2962 135.673 21.4583 134.84 20.1032 133.358C18.7481 131.876 17.9868 129.866 17.9868 127.77L17.9859 80.2301Z" fill="#c9c9c9"/>
<path d="M184.279 105.624H138.214C137.216 105.624 136.408 106.509 136.408 107.6V124.393C136.408 125.485 137.216 126.369 138.214 126.369H184.279C185.276 126.369 186.085 125.485 186.085 124.393V107.6C186.085 106.509 185.276 105.624 184.279 105.624Z" fill="#c9c9c9"/>
<path d="M128.872 105.624H82.8077C81.81 105.624 81.0012 106.509 81.0012 107.6V124.393C81.0012 125.485 81.81 126.369 82.8077 126.369H128.872C129.87 126.369 130.679 125.485 130.679 124.393V107.6C130.679 106.509 129.87 105.624 128.872 105.624Z" fill="#c9c9c9"/>
<path d="M73.4665 105.624H27.402C26.4044 105.624 25.5956 106.509 25.5956 107.6V124.393C25.5956 125.485 26.4044 126.369 27.402 126.369H73.4665C74.4642 126.369 75.273 125.485 75.273 124.393V107.6C75.273 106.509 74.4642 105.624 73.4665 105.624Z" fill="var(--color-accent-medium, #037E21)"/>
<path d="M19.7923 152.557V200.097C19.7923 201.669 20.3633 203.177 21.3796 204.288C22.3959 205.4 23.7744 206.024 25.2117 206.024H186.774C188.212 206.024 189.59 205.4 190.606 204.288C191.623 203.177 192.194 201.669 192.194 200.097V152.557C192.194 150.985 191.623 149.478 190.606 148.366C189.59 147.255 188.212 146.63 186.774 146.63H25.2126C24.5008 146.63 23.796 146.783 23.1384 147.081C22.4808 147.379 21.8833 147.815 21.3799 148.366C20.8766 148.916 20.4773 149.57 20.2049 150.289C19.9325 151.008 19.7923 151.779 19.7923 152.557ZM17.9859 152.557C17.9859 150.461 18.7472 148.451 20.1023 146.969C21.4574 145.487 23.2953 144.654 25.2117 144.654H186.774C188.691 144.654 190.528 145.487 191.884 146.969C193.239 148.451 194 150.461 194 152.557V200.097C194 202.193 193.239 204.203 191.884 205.685C190.528 207.167 188.691 208 186.774 208H25.2126C23.2962 208 21.4583 207.167 20.1032 205.685C18.7481 204.203 17.9868 202.193 17.9868 200.097L17.9859 152.557Z" fill="#c9c9c9"/>
<path d="M184.279 177.951H138.214C137.216 177.951 136.408 178.836 136.408 179.927V196.721C136.408 197.812 137.216 198.696 138.214 198.696H184.279C185.276 198.696 186.085 197.812 186.085 196.721V179.927C186.085 178.836 185.276 177.951 184.279 177.951Z" fill="#c9c9c9"/>
<path d="M128.872 177.951H82.8077C81.81 177.951 81.0012 178.836 81.0012 179.927V196.721C81.0012 197.812 81.81 198.696 82.8077 198.696H128.872C129.87 198.696 130.679 197.812 130.679 196.721V179.927C130.679 178.836 129.87 177.951 128.872 177.951Z" fill="#c9c9c9"/>
<path d="M73.4665 177.951H27.402C26.4044 177.951 25.5956 178.836 25.5956 179.927V196.721C25.5956 197.812 26.4044 198.696 27.402 198.696H73.4665C74.4642 198.696 75.273 197.812 75.273 196.721V179.927C75.273 178.836 74.4642 177.951 73.4665 177.951Z" fill="var(--color-accent-medium, #037E21)"/>
</svg>