<svg xmlns="http://www.w3.org/2000/svg" width="194" height="136" viewBox="0 0 194 136" fill="none">
<path d="M13.2159 31.7685H10.5188V33.7459H13.2159V31.7685ZM7.82163 31.7685H5.12452V33.7459H7.82163V31.7685ZM2.4274 33.7459V31.7685H0.00179805V34.0425H1.79987V33.7459H2.4274ZM0 37.0086V39.9747H1.79808V37.0086H0ZM0 42.9407V45.9068H1.79808V42.9407H0ZM0 48.8729V51.8389H1.79808V48.8729H0ZM0 54.805V57.771H1.79808V54.805H0ZM0 60.7371V63.7032H1.79808V60.7371H0ZM0 66.6692V69.6353H1.79808V66.6692H0ZM0 72.6014V75.5674H1.79808V72.6014H0ZM0 78.5335V81.4996H1.79808V78.5335H0ZM0 84.4656V87.4317H1.79808V84.4656H0ZM0 90.3978V93.3638H1.79808V90.3978H0ZM0 96.3299V99.296H1.79808V96.3299H0ZM1.79808 104.931V102.262H0V105.92H1.16875V104.931H1.79808ZM3.86587 105.92H6.56298V103.943H3.86587V105.92ZM9.2601 105.92H11.9572V103.943H9.2601V105.92Z" fill="#c9c9c9"/>
<path d="M20.5997 7.90951V55.4891C20.5997 57.0624 21.1681 58.5713 22.1797 59.6838C23.1913 60.7963 24.5633 61.4213 25.994 61.4213H186.808C188.238 61.4213 189.61 60.7963 190.622 59.6838C191.634 58.5713 192.202 57.0624 192.202 55.4891V7.90951C192.202 6.33621 191.634 4.82735 190.622 3.71486C189.61 2.60237 188.238 1.97738 186.808 1.97738H25.9949C25.2864 1.97725 24.5849 2.13059 23.9303 2.42865C23.2758 2.72671 22.681 3.16365 22.18 3.71451C21.679 4.26537 21.2816 4.91937 21.0104 5.63915C20.7393 6.35893 20.5997 7.1304 20.5997 7.90951ZM18.8017 7.90951C18.8017 5.81177 19.5594 3.79996 20.9082 2.31664C22.2571 0.83332 24.0865 0 25.994 0H186.808C188.715 0 190.545 0.83332 191.893 2.31664C193.242 3.79996 194 5.81177 194 7.90951V55.4891C194 57.5869 193.242 59.5987 191.893 61.082C190.545 62.5653 188.715 63.3986 186.808 63.3986H25.9949C24.0874 63.3986 22.258 62.5653 20.9091 61.082C19.5603 59.5987 18.8026 57.5869 18.8026 55.4891L18.8017 7.90951Z" fill="#c9c9c9"/>
<path d="M184.324 33.3247H138.473C137.48 33.3247 136.674 34.21 136.674 35.3021V52.1098C136.674 53.2019 137.48 54.0872 138.473 54.0872H184.324C185.317 54.0872 186.122 53.2019 186.122 52.1098V35.3021C186.122 34.21 185.317 33.3247 184.324 33.3247Z" fill="var(--color-accent-medium, #037E21)"/>
<path d="M129.174 33.3247H83.3228C82.3298 33.3247 81.5247 34.21 81.5247 35.3021V52.1098C81.5247 53.2019 82.3298 54.0872 83.3228 54.0872H129.174C130.167 54.0872 130.972 53.2019 130.972 52.1098V35.3021C130.972 34.21 130.167 33.3247 129.174 33.3247Z" fill="#c9c9c9"/>
<path d="M74.0249 33.3247H28.174C27.1809 33.3247 26.3759 34.21 26.3759 35.3021V52.1098C26.3759 53.2019 27.1809 54.0872 28.174 54.0872H74.0249C75.018 54.0872 75.823 53.2019 75.823 52.1098V35.3021C75.823 34.21 75.018 33.3247 74.0249 33.3247Z" fill="#c9c9c9"/>
<path d="M20.5997 80.5109V128.09C20.5997 129.664 21.1681 131.173 22.1797 132.285C23.1913 133.398 24.5633 134.023 25.994 134.023H186.808C188.238 134.023 189.61 133.398 190.622 132.285C191.634 131.173 192.202 129.664 192.202 128.09V80.5109C192.202 78.9376 191.634 77.4287 190.622 76.3162C189.61 75.2037 188.238 74.5787 186.808 74.5787H25.9949C25.2864 74.5786 24.5849 74.732 23.9303 75.03C23.2758 75.3281 22.681 75.765 22.18 76.3159C21.679 76.8667 21.2816 77.5207 21.0104 78.2405C20.7393 78.9603 20.5997 79.7318 20.5997 80.5109ZM18.8017 80.5109C18.8017 78.4131 19.5594 76.4013 20.9082 74.918C22.2571 73.4347 24.0865 72.6014 25.994 72.6014H186.808C188.715 72.6014 190.545 73.4347 191.893 74.918C193.242 76.4013 194 78.4131 194 80.5109V128.09C194 130.188 193.242 132.2 191.893 133.683C190.545 135.167 188.715 136 186.808 136H25.9949C24.0874 136 22.258 135.167 20.9091 133.683C19.5603 132.2 18.8026 130.188 18.8026 128.09L18.8017 80.5109Z" fill="#c9c9c9"/>
<path d="M184.324 105.926H138.473C137.48 105.926 136.674 106.811 136.674 107.903V124.711C136.674 125.803 137.48 126.689 138.473 126.689H184.324C185.317 126.689 186.122 125.803 186.122 124.711V107.903C186.122 106.811 185.317 105.926 184.324 105.926Z" fill="#c9c9c9"/>
<path d="M129.174 105.926H83.3228C82.3298 105.926 81.5247 106.811 81.5247 107.903V124.711C81.5247 125.803 82.3298 126.689 83.3228 126.689H129.174C130.167 126.689 130.972 125.803 130.972 124.711V107.903C130.972 106.811 130.167 105.926 129.174 105.926Z" fill="#c9c9c9"/>
<path d="M74.0249 105.926H28.174C27.1809 105.926 26.3759 106.811 26.3759 107.903V124.711C26.3759 125.803 27.1809 126.689 28.174 126.689H74.0249C75.018 126.689 75.823 125.803 75.823 124.711V107.903C75.823 106.811 75.018 105.926 74.0249 105.926Z" fill="var(--color-accent-medium, #037E21)"/>
</svg>