<svg fill="currentColor" xmlns="http://www.w3.org/2000/svg" width="24" height="24" viewBox="0 0 24 24">
  <path fill-rule="evenodd" d="M19.4972037,21 C19.2120862,20.2925618 18.4427669,19.7857143 17.5384615,19.7857143 C16.6341562,19.7857143 15.8648368,20.2925618 15.5797193,21 L13.9587422,21 C13.6736247,20.2925618 12.9043053,19.7857143 12,19.7857143 C11.0956947,19.7857143 10.3263753,20.2925618 10.0412578,21 L8.42028066,21 C8.13516315,20.2925618 7.3658438,19.7857143 6.46153846,19.7857143 C5.55723312,19.7857143 4.78791377,20.2925618 4.50279626,21 L3,21 L3,4 L21,4 L21,21 L19.4972037,21 Z M5.76923077,6.42857143 L5.76923077,7.64285714 L18.2307692,7.64285714 L18.2307692,6.42857143 L5.76923077,6.42857143 Z M5.76923077,13.7142857 L5.76923077,14.9285714 L18.2307692,14.9285714 L18.2307692,13.7142857 L5.76923077,13.7142857 Z M5.76923077,10.0714286 L5.76923077,11.2857143 L18.2307692,11.2857143 L18.2307692,10.0714286 L5.76923077,10.0714286 Z"/>
</svg>
