<svg fill="currentColor" width="24" height="24" viewBox="0 0 24 24"  xmlns="http://www.w3.org/2000/svg">
<path d="M8 1H23V16L19 12L15 16L8 9L12 5L8 1ZM10.9065 19.4375L8.46989 21.8742C7.99343 22.3506 7.21431 22.3506 6.73904 21.8742C6.26377 21.3977 6.26377 20.621 6.73904 20.1445L9.17688 17.7079C9.65216 17.2314 10.4301 17.2314 10.9065 17.7079C11.383 18.1831 11.383 18.9611 10.9065 19.4375ZM9.53038 14.4696C10.008 14.9473 10.008 15.7216 9.53038 16.1993C9.05275 16.6781 8.27836 16.6781 7.80072 16.1993C7.3219 15.7216 7.3219 14.9473 7.80072 14.4696C8.27836 13.992 9.05275 13.992 9.53038 14.4696ZM3.087 22.6427C2.61055 23.1191 1.83143 23.1191 1.35734 22.6427C0.880886 22.1662 0.880886 21.3871 1.35734 20.913L5.49174 16.7774C5.9682 16.301 6.74732 16.301 7.22259 16.7774C7.69786 17.2539 7.69786 18.033 7.22259 18.5071L3.087 22.6427ZM6.35717 11.2976L8.08683 13.0272L4.33903 16.7762C3.86257 17.2527 3.08346 17.2527 2.60818 16.7762C2.13291 16.2998 2.13173 15.523 2.60818 15.0466L6.35717 11.2976Z" />
</svg>
