<!-- Generated by IcoMoon.io -->
<svg fill="currentColor" version="1.1" xmlns="http://www.w3.org/2000/svg" width="24" height="24" viewBox="0 0 24 24">
<title>boxing</title>
<path d="M21.773 12.341l-0.036-0.87c-0.034-3.515-2.891-6.351-6.411-6.351-0.036 0-0.072 0-0.107 0.001l0.005-0-0.814 0.039-7.879 0.613c-0.139 0.015-0.247 0.133-0.247 0.275 0 0.003 0 0.005 0 0.008l-0-0v6.215c-0 0.003-0 0.006-0 0.009 0 0.151 0.123 0.274 0.274 0.274 0.001 0 0.002 0 0.003-0h-0c1.933-0.169 4.182-0.266 6.454-0.266 0.928 0 1.852 0.016 2.773 0.048l-0.134-0.004c0.413-0.019 0.637 0.637 0.654 1.078 0.001 0.026 0.002 0.057 0.002 0.088 0 0.578-0.28 1.091-0.713 1.41l-0.005 0.003c-0.785 0.58-1.288 1.502-1.288 2.542 0 0.071 0.002 0.142 0.007 0.212l-0.001-0.010c0.022 0.682 0.579 1.226 1.264 1.226 0.010 0 0.021-0 0.031-0l-0.002 0 2.075-0.1c2.345-0.202 4.172-2.156 4.172-4.536 0-0.117-0.004-0.233-0.013-0.348l0.001 0.015z"></path>
<path d="M5.317 5.718l-2.872-0.141c-0.004-0-0.009-0-0.013-0-0.156 0-0.282 0.126-0.284 0.281v6.936c0 0 0 0 0 0 0 0.156 0.127 0.283 0.283 0.283 0.006 0 0.012-0 0.017-0.001l0.323-0.017v-1.066c0-0.29 0.235-0.525 0.525-0.525h1.145c0.29 0 0.525 0.235 0.525 0.525v0 0.951l0.35-0.019c0.15-0.009 0.268-0.132 0.269-0.283v-6.642c0-0.002 0-0.004 0-0.005 0-0.15-0.119-0.273-0.268-0.277l-0-0z"></path>
<path d="M15.163 14.629c0.254-0.259 0.41-0.615 0.41-1.006 0-0.126-0.016-0.248-0.046-0.364l0.002 0.010c-0.033-0.158-0.118-0.293-0.234-0.389l-0.001-0.001h-3.699c1.244 0.692 1.859 1.862 3.275 2.091 0.094-0.126 0.19-0.237 0.293-0.341l-0 0z"></path>
</svg>
