<svg xmlns="http://www.w3.org/2000/svg" width="24" height="24" viewBox="0 0 24 24">
    <g class="currentLayer" >
        <title>Cashout</title>
        <g id="Group_10" data-name="Group 10" class="" fill="currentColor" fill-opacity="1">
            <path d="M5.925992544629656,6.571804968089817 l-1.2722817663349,13.618613670295574 a0.5965587837703649,0.6835222370200686 0 0 0 0.1540874583672269,0.5361276314067366 a0.6615865184941482,0.7580294002971373 0 0 0 0.4749851927650297,0.2219017688904014 h13.407022524355765 a0.6644138113082262,0.7612688421787493 0 0 0 0.4763988391720686,-0.2219017688904014 a0.5965587837703649,0.6835222370200686 0 0 0 0.1540874583672269,-0.5361276314067366 l-1.255318009450435,-13.618613670295574 h-1.1492945289225265 l0.9612795567863699,12.87516175846569 h-11.782742802668212 l0.9725887280426797,-12.87516175846569 zm2.4866040299812107,0.7920435400540604 a0.7181323747756991,0.8228182379293711 0 0 0 -0.42409392211163377,0.15225376843574992 a0.46508966791575806,0.5328881895251241 0 0 0 -0.19649685057839014,0.38063442108937473 a0.4000619331919744,0.4583810262480555 0 0 0 0.15126016555314933,0.3822541420301806 a0.6361408831674504,0.7288744233626319 0 0 0 0.4127847508553235,0.16197209408058502 h7.293001813913054 a0.6417954687956056,0.7353533071258554 0 0 0 0.4127847508553235,-0.16197209408058502 a0.4014755795990132,0.4600007471888613 0 0 0 0.15126016555314933,-0.3822541420301806 a0.46791696072983596,0.5361276314067366 0 0 0 -0.19932414339246773,-0.38063442108937473 a0.7068232035193889,0.8098604704029246 0 0 0 -0.42409392211163377,-0.15225376843574992 zm3.587834581064418,2.5559196445916292 a0.3378614912822679,0.38711330485259837 0 0 0 -0.366134419423044,0.3433808394508404 v0.21704260606798384 a2.2392159087494234,2.5656379702364642 0 0 0 -1.1690855786210694,0.5782403758676885 a1.4263692247021262,1.6342984292731015 0 0 0 -0.5428402203028908,1.263382333828562 a1.3373095010586842,1.5322560100023335 0 0 0 0.23749259638251485,1.0026072623588207 a3.7518175642809157,4.298739376898722 0 0 0 2.120469610558166,1.1775371239658525 a1.6610345282705634,1.9031721054468727 0 0 1 0.6488637008307993,0.3595780488588986 a0.6347272367604114,0.7272547024218263 0 0 1 0.2261834251262047,0.5895784224533293 a0.720959667589777,0.8260576798109829 0 0 1 -0.2233561323121271,0.6187333993878349 a1.2722817663349,1.4577488467252637 0 0 1 -1.2722817663349,0.31584558345714087 c-0.588076905328132,-0.19598623383750788 -0.6884458002278852,-0.6867616789016805 -0.866565247514771,-1.0868327512807254 a0.5527357451521621,0.6333108878550878 0 0 0 -0.5216355241973091,-0.29154976934505317 a0.6022133693985195,0.6900011207832922 0 0 0 -0.6318999439463343,0.623592562210252 a0.9895524849271449,1.1338046585640946 0 0 0 0.11450535897014108,0.5004937707090077 a1.9621412129698235,2.248172665838518 0 0 0 0.9810706064849125,1.0479594487013846 a3.4295061834760747,3.9294430023949887 0 0 0 0.8651516011077325,0.24619758300248928 v0.2623947924105477 a0.4071301652271681,0.4664796309520848 0 0 0 0.8100193912332199,0 v-0.25105674582490684 a2.5120496653079085,2.878244111811993 0 0 0 1.4532285064358634,-0.6883813998424861 a1.555011047742655,1.7816930348864337 0 0 0 0.4976035352776502,-1.426974148849953 a1.5196698875666856,1.7412000113662878 0 0 0 -0.30110668469925994,-1.054438332464608 a1.9946550803317153,2.285426247477053 0 0 0 -0.9174565181681675,-0.7094377720729621 c-0.23749259638251485,-0.09232409362593348 -0.4848807176143011,-0.1506340474949442 -0.7237869604038542,-0.23162009453523652 c-0.4749851927650297,-0.16197209408058502 -0.8891835900273921,-0.17331014066622588 -1.1747401642492243,-0.6381700506775054 a0.6842048610067687,0.783944935350031 0 0 1 0.04665033143227972,-1.0139453089444617 a1.0503392804298124,1.203452659018746 0 0 1 0.944315799901904,-0.3498597232140637 a0.9400748606807875,1.0771144256358902 0 0 1 0.5258764634184254,0.346620281332452 c0.14136464070387783,0.19922567571911956 0.1540874583672269,0.45028242154402603 0.26576552452329066,0.6689447485528162 a0.5654585628155112,0.6478883763223396 0 0 0 0.5117399993480379,0.2704933971145769 a0.5287037562325033,0.6057756318613883 0 0 0 0.5753540876647827,-0.5750009339860763 a0.9683477888215639,1.1095088444520071 0 0 0 -0.13288276226164533,-0.4470429796624146 a1.9494183953064745,2.2335951773712655 0 0 0 -0.9103882861329735,-0.8859873546207998 a2.554459057519071,2.926835740036168 0 0 0 -0.6912730930419629,-0.2219017688904014 V10.259909550304716 a0.3378614912822679,0.38711330485259837 0 0 0 -0.366134419423044,-0.3433808394508404 z" fill="currentColor" fill-opacity="1" id="svg_1"/>
            <path d="M0.5809947893590438,3.133140178836789 a0.5795950268858994,0.6640855857303984 0 0 0 -0.5810086732929377,0.6657053066712042 v5.49733287309505 a0.5810086732929377,0.6657053066712042 0 0 0 0.5810086732929377,0.6673250276120101 h4.281934966920457 q0.096127955678637,-1.0414805649381613 0.1880149721361575,-2.0829611298763213 h-1.2595589486715515 a1.1634309929929143,1.3330303342832137 0 0 1 0,-2.6660606685664274 h16.41384843212725 a1.1634309929929143,1.3330303342832137 0 0 1 0,2.6660606685664274 h-1.2722817663349 q0.1102644197490247,1.0414805649381613 0.2134606074628556,2.0829611298763213 h4.264971210035991 a0.5810086732929377,0.6657053066712042 0 0 0 0.5810086732929377,-0.6673250276120101 v-5.49733287309505 a0.5795950268858994,0.6640855857303984 0 0 0 -0.5810086732929377,-0.6657053066712042 z" fill="currentColor" fill-opacity="1" id="svg_2"/>
        </g>
    </g>
</svg>
