<svg
  xmlns="http://www.w3.org/2000/svg"
  viewBox="0 0 512 512"
  width="24"
  height="24"
  fill="currentColor"
>
  <path d="M488.32 294.822H158.562c-12.786 0-23.18 10.395-23.18 23.18v75.534c0 12.806 10.395 23.211 23.18 23.211h37.197c3.971 0 7.183 3.222 7.183 7.193v39.486l46.083-44.647a7.154 7.154 0 0 1 4.997-2.032H488.32c12.786 0 23.18-10.405 23.18-23.211v-75.534c0-12.785-10.395-23.18-23.18-23.18zm-229.423 70.885c3.437 1.98 4.607 6.383 2.627 9.81a7.185 7.185 0 0 1-6.229 3.602 7.186 7.186 0 0 1-3.581-.965l-17.208-9.943v19.886c0 3.971-3.212 7.193-7.183 7.193s-7.183-3.222-7.183-7.193v-19.886l-17.208 9.943a7.226 7.226 0 0 1-3.581.965 7.174 7.174 0 0 1-6.229-3.602c-1.991-3.427-.811-7.829 2.627-9.81l17.208-9.933-17.208-9.943a7.17 7.17 0 0 1-2.627-9.81 7.17 7.17 0 0 1 9.81-2.627l17.208 9.933v-19.856c0-3.971 3.212-7.183 7.183-7.183s7.183 3.212 7.183 7.183v19.856l17.208-9.933a7.17 7.17 0 0 1 9.81 2.627c1.98 3.438.811 7.829-2.627 9.81l-17.208 9.943zm96.108 0a7.194 7.194 0 0 1 2.627 9.82 7.195 7.195 0 0 1-6.229 3.591 7.252 7.252 0 0 1-3.591-.965l-17.198-9.943v19.886c0 3.971-3.222 7.193-7.183 7.193a7.195 7.195 0 0 1-7.193-7.193V368.23l-17.167 9.923a7.263 7.263 0 0 1-3.591.965 7.198 7.198 0 0 1-6.229-3.591 7.194 7.194 0 0 1 2.627-9.82l17.198-9.933-17.198-9.943c-3.438-1.98-4.607-6.372-2.627-9.81 1.991-3.438 6.383-4.618 9.82-2.627l17.167 9.912v-19.835c0-3.971 3.222-7.183 7.193-7.183a7.184 7.184 0 0 1 7.183 7.183v19.856l17.198-9.933c3.438-1.991 7.829-.811 9.82 2.627 1.98 3.438.811 7.829-2.627 9.81l-17.198 9.943zm96.128 0c3.438 1.98 4.618 6.383 2.627 9.81a7.173 7.173 0 0 1-6.229 3.602 7.188 7.188 0 0 1-3.581-.965l-17.208-9.943v19.886c0 3.971-3.212 7.193-7.183 7.193s-7.183-3.222-7.183-7.193v-19.886l-17.208 9.943a7.199 7.199 0 0 1-3.581.965 7.174 7.174 0 0 1-6.229-3.602c-1.991-3.427-.811-7.829 2.627-9.81l17.208-9.933-17.208-9.943a7.17 7.17 0 0 1-2.627-9.81 7.17 7.17 0 0 1 9.81-2.627l17.208 9.933v-19.856c0-3.971 3.212-7.183 7.183-7.183s7.183 3.212 7.183 7.183v19.856l17.208-9.933a7.17 7.17 0 0 1 9.81 2.627 7.17 7.17 0 0 1-2.627 9.81l-17.208 9.943zM200.767 485.559a7.202 7.202 0 0 1-5.007 2.021 7.056 7.056 0 0 1-2.801-.575 7.166 7.166 0 0 1-4.382-6.608v-49.275h-30.014c-20.707 0-37.557-16.859-37.557-37.587v-75.534c0-20.707 16.849-37.556 37.557-37.556h214.123c-4.782-20.728-23.386-36.038-45.304-36.038h-21.005v-73.563c0-49.377-40.173-89.551-89.551-89.551-49.408 0-89.592 40.173-89.592 89.551v73.563h-21.005c-25.622 0-46.484 20.872-46.484 46.515v167.865c0 25.622 20.861 46.473 46.484 46.473h221.152c25.633 0 46.484-20.851 46.484-46.473v-27.665H256.937zm-31.359-314.714c0-26.125 21.272-47.377 47.418-47.377 26.125 0 47.376 21.251 47.376 47.377v73.563h-94.794zM14.869 223.031a7.184 7.184 0 0 1-14.369 0C.5 103.767 97.528 6.739 216.792 6.739c101.135 0 188.924 70.523 210.998 168.528h41.187a7.179 7.179 0 0 1 6.526 4.186 7.187 7.187 0 0 1-1.067 7.676l-44.473 51.943a7.159 7.159 0 0 1-5.459 2.514 7.2 7.2 0 0 1-5.459-2.504l-44.503-51.953a7.185 7.185 0 0 1-1.067-7.676 7.179 7.179 0 0 1 6.526-4.186h33.041c-21.76-89.84-102.92-154.16-196.25-154.16-111.34.001-201.923 90.584-201.923 201.924z"/>
</svg>
