<svg
  width="16"
  height="16"
  viewBox="0 0 16 16"
  fill="currentColor"
  xmlns="http://www.w3.org/2000/svg"
>
  <g clip-path="url(#clip0_1106_20167)">
    <path
      d="M11.5714 9.21875H7.28571C7.08929 9.21875 6.92857 9.06406 6.92857 8.875V3.375C6.92857 3.18594 7.08929 3.03125 7.28571 3.03125H10.4129L11.9286 4.49004V8.875C11.9286 9.06406 11.7679 9.21875 11.5714 9.21875ZM7.28571 10.25H11.5714C12.3594 10.25 13 9.6334 13 8.875V4.49004C13 4.21719 12.8862 3.95508 12.6853 3.76172L11.1719 2.30293C10.971 2.10957 10.6987 2 10.4152 2H7.28571C6.49777 2 5.85714 2.6166 5.85714 3.375V8.875C5.85714 9.6334 6.49777 10.25 7.28571 10.25ZM4.42857 4.75C3.64063 4.75 3 5.3666 3 6.125V11.625C3 12.3834 3.64063 13 4.42857 13H8.71429C9.50223 13 10.1429 12.3834 10.1429 11.625V10.9375H9.07143V11.625C9.07143 11.8141 8.91071 11.9688 8.71429 11.9688H4.42857C4.23214 11.9688 4.07143 11.8141 4.07143 11.625V6.125C4.07143 5.93594 4.23214 5.78125 4.42857 5.78125H5.14286V4.75H4.42857Z"
      fill-opacity="0.6"
    />
  </g>
  <defs>
    <clipPath id="clip0_1106_20167">
      <rect width="10" height="11" fill="none" transform="translate(3 2)" />
    </clipPath>
  </defs>
</svg>
