<!-- Generated by IcoMoon.io -->
<svg fill="currentColor" version="1.1" xmlns="http://www.w3.org/2000/svg" width="24" height="24" viewBox="0 0 24 24">
<title>starting_soon</title>
<path d="M11.394 18.875c0.438 0.134 0.942 0.21 1.463 0.21 2.867 0 5.192-2.324 5.192-5.192 0-0.012-0-0.024-0-0.036v0.002c0-0.003 0-0.007 0-0.011 0-2.861-2.319-5.181-5.181-5.181-0.004 0-0.008 0-0.012 0h0.001v5.192l-4.862 1.826c0.574 1.539 1.815 2.712 3.362 3.18l0.037 0.010z"></path>
<path d="M20.963 7.667l1.1-1.166c0.25-0.242 0.406-0.581 0.406-0.957s-0.155-0.715-0.406-0.957l-0-0c-0.239-0.238-0.568-0.385-0.932-0.385-0.013 0-0.025 0-0.038 0.001l0.002-0c-0.374 0.015-0.707 0.176-0.945 0.428l-0.001 0.001-1.1 1.1c-1.374-1.088-3.069-1.832-4.921-2.073l-0.051-0.005v-0.99h1.012c0.021 0.001 0.045 0.002 0.070 0.002 0.349 0 0.666-0.139 0.898-0.365l-0 0c0.251-0.239 0.407-0.576 0.407-0.949 0-0.003 0-0.006-0-0.009v0c0-0.002 0-0.004 0-0.007 0-0.37-0.156-0.704-0.406-0.938l-0.001-0.001c-0.241-0.232-0.569-0.375-0.93-0.375-0.013 0-0.027 0-0.040 0.001l0.002-0h-4.609c-0.036-0.003-0.078-0.006-0.121-0.006-0.735 0-1.331 0.596-1.331 1.331s0.596 1.331 1.331 1.331c0.043 0 0.085-0.002 0.126-0.006l-0.005 0h1.012v0.979c-2.765 0.389-5.138 1.823-6.747 3.882l-0.017 0.023c-0.025 0.031-0.040 0.072-0.040 0.115s0.015 0.084 0.040 0.116l-0-0 1.496 1.804c0.039 0.040 0.094 0.065 0.154 0.066h0c0.050-0.009 0.093-0.037 0.121-0.076l0-0.001c1.387-1.996 3.669-3.287 6.252-3.287 4.191 0 7.589 3.398 7.589 7.589s-3.398 7.589-7.589 7.589c-4.080 0-7.408-3.22-7.582-7.257l-0.001-0.016h1.001c0.008 0 0.017 0.001 0.026 0.001 0.244 0 0.456-0.142 0.555-0.349l0.002-0.004c0.037-0.079 0.059-0.172 0.059-0.271 0-0.157-0.056-0.3-0.148-0.413l0.001 0.001-2.266-2.706c-0.126-0.148-0.313-0.242-0.521-0.242-0.002 0-0.005 0-0.007 0h0c-0.002-0-0.004-0-0.006-0-0.205 0-0.389 0.094-0.51 0.241l-0.001 0.001-2.266 2.706c-0.094 0.106-0.152 0.247-0.152 0.401 0 0.099 0.024 0.192 0.065 0.274l-0.002-0.003c0.101 0.21 0.312 0.352 0.557 0.352 0.005 0 0.011-0 0.016-0l-0.001 0h1.001c0.251 5.461 4.74 9.794 10.241 9.794 5.617 0 10.178-4.517 10.25-10.117l0-0.007c0-0.004 0-0.008 0-0.012 0-2.337-0.79-4.489-2.118-6.204l0.017 0.023z"></path>
</svg>
