<svg
  xmlns="http://www.w3.org/2000/svg"
  viewBox="0 0 468 468"
  width="24"
  height="24"
  fill="currentColor"
>
  <path d="M276.457 56.995c0 18.224-14.8 32.997-33.058 32.997H128.198c-18.257 0-33.058-14.773-33.058-32.997V32.997C95.14 14.773 109.941 0 128.198 0h115.201c18.257 0 33.058 14.773 33.058 32.997zm-30.053-23.998c0-1.657-1.346-3-3.005-3H128.198a3.002 3.002 0 0 0-3.005 3v23.998c0 1.657 1.345 3 3.005 3h115.201a3.002 3.002 0 0 0 3.005-3zM191.308 243.978h107.187v29.997H191.308zM191.308 153.986h107.187v29.997H191.308zM191.308 334.97h50.088v29.997h-50.088zM357.827 468c-52.478 0-95.173-42.613-95.173-94.991s42.695-94.991 95.173-94.991S453 320.63 453 373.009 410.305 468 357.827 468zm0-161.45c-36.715 0-66.585 29.813-66.585 66.458s29.87 66.458 66.585 66.458 66.585-29.813 66.585-66.458-29.87-66.458-66.585-66.458zM356.597 208.981h-30.053V65.605c0-2.915-2.841-5.61-5.534-5.61h-18.508V29.997h18.508c19.359 0 35.587 16.049 35.587 35.608zM326.545 230.979h30.053v25.998h-30.053z"/>
  <path d="M247.406 442.96H50.095C30.743 442.96 15 427.094 15 407.731V65.605c0-19.558 15.743-35.608 35.095-35.608H72.1v29.997H50.095c-2.686 0-5.042 2.695-5.042 5.61v342.127c0 2.822 2.262 5.231 5.042 5.231h197.312v29.998zM339.29 403.386l-27.19-27.629 21.42-21.065 16.439 16.662 32.983-33.718 21.5 20.955-43.693 44.756c-2.81 2.873-12.508 8.616-21.459.039z"/>
  <path d="m95.262 379.176-29.183-31.725 22.148-20.258 18.112 19.72 43.051-46.825 22.142 20.284-54.125 58.805c-2.846 3.096-13.291 8.288-22.145-.001zM95.262 289.184 66.079 257.46l22.148-20.258 18.112 19.72 43.051-46.825 22.142 20.284-54.125 58.805c-2.846 3.095-13.291 8.287-22.145-.002zM95.262 198.192l-29.183-31.725 22.148-20.258 18.112 19.72 43.051-46.825 22.142 20.284-54.125 58.805c-2.846 3.097-13.291 8.288-22.145-.001z"/>
</svg>
