<svg
  xmlns="http://www.w3.org/2000/svg"
  viewBox="0 0 100 100"
  width="24"
  height="24"
  fill="currentColor"
>
  <path d="M58.8 62.9c0-8.6 7-15.6 15.6-15.6H88v-8.2c0-4.2-3.4-7.5-7.5-7.5H16.3c-5.2 0-8-4.1-8-4.1v62.3C11 95 16 95 16 95h64.5c4.2 0 7.5-3.4 7.5-7.5v-9H74.4c-8.6 0-15.6-7-15.6-15.6z"/>
  <path d="M88.7 50.9H74.4c-6.6 0-11.9 5.3-11.9 11.9 0 6.6 5.3 11.9 11.9 11.9h14.2c1.7 0 3.1-1.4 3.1-3.1V54c0-1.7-1.3-3.1-3-3.1zM77.1 67.4c-2.5 0-4.5-2-4.5-4.5s2-4.5 4.5-4.5 4.5 2 4.5 4.5-2 4.5-4.5 4.5zM14.5 27.4h12.3L68.3 10l5.1 17.4h8.1s3.4.4 4.9 2.8v-.8c0-4-3.2-7.2-7.2-7.2h-3.5L70.6 5l-41 17.3h-8.7c-8.6 0-9.3 4.4-6.4 5.1z"/>
</svg>
