<svg
  xmlns="http://www.w3.org/2000/svg"
  viewBox="0 0 494.209 494.209"
  width="24"
  height="24"
  fill="currentColor"
>
  <path
    fill-rule="evenodd"
    d="M431.048 14.95c-.01-9.462-8.795-16.669-18.166-14.59L64.642 77.95H431.09l-.042-63zM354.102 258.614l-100.845-45.486a14.938 14.938 0 0 0-12.304 0l-100.005 45.093c-5.662 2.145-9.688 7.617-9.688 14.031v81.517c0 32.246 9.395 63.938 36.117 84.082l70.531 53.168c5.216 4.097 12.726 4.351 18.269.167l70.691-53.34c26.701-20.147 36.083-51.821 36.083-84.048l-.022-81.53c-.004-5.708-3.286-11.158-8.827-13.654zm-40.514 63.749-60.833 60.832a14.955 14.955 0 0 1-10.606 4.394 14.946 14.946 0 0 1-10.606-4.394l-29.113-29.113c-5.858-5.857-5.858-15.355 0-21.213 5.857-5.857 15.355-5.857 21.213 0l18.507 18.507 50.227-50.226c5.858-5.857 15.356-5.859 21.213 0 5.856 5.858 5.855 15.356-.002 21.213zM446.71 275.855c0 19.72 14.531 36.257 33.395 39.438v-78.877c-18.865 3.181-33.395 19.719-33.395 39.439z"
  />
  <path
    fill-rule="evenodd"
    d="M465.105 107.95h-436c-8.284 0-15 6.716-15 15v305.811c0 8.284 6.716 15 15 15h101.311c-7.322-8.803-13.085-18.485-17.501-28.765-8.276-19.268-11.655-40.306-11.655-61.227v-81.517c0-9.367 2.969-18.161 8.038-25.502a45.12 45.12 0 0 1 19.348-15.828l100.003-45.099c6.057-2.729 12.329-4.021 18.447-4.021 6.334 0 12.632 1.396 18.467 4.021l100.845 45.486c8.051 3.627 14.577 9.504 19.19 16.642 4.67 7.225 7.209 15.682 7.214 24.315l.139 81.53c0 20.839-3.375 41.822-11.646 61.085-4.438 10.337-10.21 20.059-17.525 28.879h101.326c8.284 0 15-6.716 15-15v-83.228c-35.457-3.352-63.395-33.375-63.395-69.678s27.938-66.326 63.395-69.678V122.95c-.001-8.285-6.717-15-15.001-15z"
  />
</svg>
