<!-- Generated by IcoMoon.io -->
<svg fill="currentColor" version="1.1" xmlns="http://www.w3.org/2000/svg" width="24" height="24" viewBox="0 0 24 24">
<title>cricket</title>
<path d="M16.866 2.475c-1.178-0.7-2.7-0.313-3.4 0.864s-0.314 2.7 0.864 3.401c1.178 0.7 2.7 0.313 3.4-0.865 0.701-1.177 0.314-2.7-0.864-3.4z"></path>
<path d="M10.035 1.589l6.284 13.975c0.226 0.502 0 1.096-0.502 1.322l-0.923 0.415 2.346 5.217c0.158 0.352 0 0.77-0.351 0.925-0.353 0.158-0.768 0.002-0.926-0.352l-2.345-5.216-0.924 0.415c-0.501 0.226-1.096 0-1.322-0.501l-6.284-13.975c-0.226-0.502 0-1.097 0.502-1.323l3.123-1.404c0.501-0.225 1.096 0 1.322 0.502z"></path>
</svg>
