<!-- Generated by IcoMoon.io -->
<svg fill="currentColor" version="1.1" xmlns="http://www.w3.org/2000/svg" width="24" height="24" viewBox="0 0 24 24">
<title>cycling</title>
<path d="M19.072 21.442c-2.031 0-3.683-1.612-3.683-3.594 0-1.284 0.698-2.405 1.739-3.040l0.949 2.195c-0.203 0.227-0.33 0.52-0.33 0.846 0 0.714 0.593 1.293 1.325 1.293s1.325-0.579 1.325-1.293c0-0.69-0.555-1.249-1.253-1.286l-0.949-2.195c0.283-0.068 0.574-0.114 0.877-0.114 2.031 0 3.683 1.612 3.683 3.594s-1.652 3.594-3.683 3.594v0zM4.842 21.442c-2.031 0-3.684-1.612-3.684-3.594s1.653-3.594 3.684-3.594c0.597 0 1.154 0.153 1.653 0.4l-1.426 1.924c-0.074-0.013-0.149-0.023-0.227-0.023-0.732 0-1.325 0.579-1.325 1.293s0.593 1.293 1.325 1.293c0.732 0 1.324-0.579 1.324-1.293 0-0.221-0.061-0.424-0.161-0.606l1.437-1.937c0.668 0.651 1.082 1.55 1.082 2.543 0 1.982-1.652 3.594-3.683 3.594v0zM9.157 12.992h2.715l-1.788 3.072h0.038c-0.026 0.040-0.055 0.077-0.070 0.124-0.097 0.298 0.073 0.615 0.378 0.71l1.25 0.385h-2.035c-0.14-1.141-0.698-2.155-1.521-2.898l1.033-1.392zM13.794 11.469l-2.503-1.968c0 0 1.503-0.324 2.707-1.153 0.514-0.468 1.223-0.375 1.223-0.375l1.336 1.819 0.557 0.107h-1.236c-0.043 0-0.085 0.015-0.128 0.025-0.108 0.025-0.209 0.069-0.284 0.144-0.026 0.026-0.041 0.059-0.062 0.089s-0.046 0.057-0.061 0.092c-0.025 0.060-0.036 0.124-0.039 0.19-0.001 0.009-0.006 0.017-0.006 0.026 0 0.079 0.017 0.154 0.047 0.222l0.508 1.174h-1.62c-0.103-0.129-0.243-0.261-0.439-0.393v0zM14.268 17.283h-1.161c0.027-0.041 0.053-0.084 0.069-0.132 0.096-0.298-0.074-0.615-0.378-0.709l-1.224-0.377h0.040l2.463-2.803c0 0 0.118-0.102 0.224-0.269h2.042l0.328 0.758c-1.296 0.726-2.216 2.019-2.402 3.532v0zM19.072 13.122c-0.463 0-0.91 0.068-1.335 0.187l-0.476-1.101c-0.001-0.002-0.002-0.002-0.002-0.004l-0.507-1.174h2.488c0.32 0 0.579-0.253 0.579-0.565 0-0.017-0.008-0.031-0.010-0.048l0.927 0.178c0.194 0.054 0.397-0.057 0.453-0.246s-0.058-0.389-0.253-0.443l-3.407-1.389-1.288-2.796c0.014-0.027 0.034-0.053 0.050-0.078 0.339 0.446 0.977 1.011 1.421 0.685 0.51-0.372 0.943-0.972 0.928-1.92 0.427 0.068 0.692 0.090 0.692 0.090s0.715-1.659-0.872-2.252c-2.054-0.767-4.383 0.508-4.383 0.508 0.755 0.499 1.582 0.856 2.354 1.114l-1.163-0.067c0 0-0.084 0.415-0.062 0.729-0.332-0.107-0.779-0.142-1.411 0.015 0 0-2.689 0.947-4.743 2.624s-2.166 2.223-1.83 3.207c0.218 0.64 1.046 0.961 2.303 1.486h-0.664c-0.193 0-0.356 0.098-0.461 0.24l-0.008-0.006-1.203 1.622c-0.695-0.378-1.495-0.595-2.346-0.595-2.67 0-4.842 2.12-4.842 4.726s2.172 4.725 4.842 4.725c2.473 0 4.516-1.82 4.803-4.16h1.178v0.561c0 0.313 0.26 0.565 0.579 0.565s0.58-0.253 0.58-0.565v-0.561h2.285c0.288 2.34 2.331 4.16 4.804 4.16 2.67 0 4.842-2.119 4.842-4.725s-2.172-4.726-4.842-4.726v0z"></path>
</svg>
