<!-- Generated by IcoMoon.io -->
<svg fill="currentColor" version="1.1" xmlns="http://www.w3.org/2000/svg" width="24" height="24" viewBox="0 0 24 24">
<title>darts</title>
<path d="M11.197 6.836c0.815 0 1.589 0.173 2.292 0.48l1.047-1.047c-0.997-0.53-2.133-0.833-3.339-0.833-3.938 0-7.142 3.204-7.142 7.142s3.204 7.142 7.142 7.142c3.938 0 7.143-3.204 7.143-7.142 0-1.206-0.304-2.342-0.834-3.339l-1.047 1.047c0.307 0.703 0.48 1.477 0.48 2.292 0 3.166-2.575 5.742-5.742 5.742s-5.742-2.576-5.742-5.742 2.576-5.742 5.742-5.742z"></path>
<path d="M21.083 8.962h-0.789c0.447 1.12 0.7 2.338 0.7 3.616 0 5.403-4.394 9.797-9.797 9.797-5.402 0-9.797-4.394-9.797-9.797 0-5.402 4.395-9.797 9.797-9.797 1.278 0 2.496 0.253 3.616 0.7v-0.789l0.513-0.513c-1.279-0.51-2.67-0.799-4.129-0.799-6.174 0-11.197 5.024-11.197 11.198 0 6.175 5.023 11.197 11.197 11.197s11.198-5.022 11.198-11.197c0-1.459-0.289-2.85-0.799-4.129l-0.513 0.513z"></path>
<path d="M12.881 12.578c0 0.928-0.755 1.684-1.684 1.684-0.928 0-1.684-0.756-1.684-1.684s0.756-1.684 1.684-1.684c0.206 0 0.401 0.042 0.583 0.11l-0.795 0.796c-0.348 0.095-0.609 0.4-0.609 0.778 0 0.453 0.368 0.821 0.821 0.821 0.378 0 0.683-0.261 0.778-0.609l0.796-0.796c0.068 0.183 0.11 0.378 0.11 0.584zM11.197 9.494c-1.7 0-3.084 1.383-3.084 3.084 0 1.7 1.384 3.084 3.084 3.084 1.701 0 3.084-1.384 3.084-3.084 0-0.597-0.178-1.149-0.472-1.622l3.394-3.394h3.299l3.273-3.273h-4.289v-4.289l-3.273 3.273v3.299l-3.394 3.394c-0.473-0.295-1.026-0.472-1.622-0.472z"></path>
</svg>
