<!-- Generated by IcoMoon.io -->
<svg
  version="1.1"
  xmlns="http://www.w3.org/2000/svg"
  fill="currentColor"
  width="24"
  height="24"
  viewBox="0 0 201.472 263.943"
>
  <title>disc-golf</title>
  <path
    d="M159.944 0h38.973v7.65h-38.973zM166.2 30.042a79.394 79.394 0 0 1-.43-1.866l-1.466.32c.138.628.284 1.262.44 1.901zM163.96 14.893c-.039-.67-.068-1.308-.09-1.915l-1.5.055c.023.616.053 1.267.093 1.948zM162.324 9.13a76.225 76.225 0 0 0 0 1.952l1.5-.018a81.977 81.977 0 0 1 0-1.915zM164.268 18.716a85.128 85.128 0 0 1-.175-1.91l-1.495.12c.05.627.11 1.276.178 1.942zM164.741 22.52a83.57 83.57 0 0 1-.257-1.9l-1.489.186c.078.631.166 1.276.262 1.933zM165.383 26.3a85.932 85.932 0 0 1-.342-1.886l-1.479.252c.108.63.224 1.27.349 1.919zM169.406 18.579c-.05-.65-.094-1.28-.132-1.89l-1.497.092c.038.618.082 1.258.134 1.915zM169.174 14.798c-.03-.662-.052-1.294-.068-1.893l-1.5.041c.017.607.04 1.246.07 1.918zM170.879 29.835a89.56 89.56 0 0 1-.33-1.861l-1.48.246c.105.626.216 1.256.335 1.892zM167.572 9.103a91.73 91.73 0 0 0-.005 1.001l.004.921 1.5-.014-.004-.907c0-.35.002-.677.005-.983zM170.254 26.101c-.094-.632-.181-1.258-.261-1.874l-1.487.194c.08.625.168 1.259.264 1.901zM169.764 22.348a112.64 112.64 0 0 1-.195-1.884l-1.493.142c.06.623.125 1.26.198 1.91zM174.74 15.48c-.019-.722-.034-1.412-.044-2.066l-1.5.025c.01.658.025 1.354.045 2.081zM173.17 9.276l-.003.823.005 1.257 1.5-.01-.005-1.247.002-.817zM175.118 23.73c-.046-.699-.087-1.386-.125-2.06l-1.498.084c.039.677.08 1.37.126 2.076zM175.43 27.85c-.059-.694-.115-1.381-.166-2.058l-1.496.113c.052.683.108 1.374.169 2.074zM174.888 19.607c-.032-.708-.06-1.396-.084-2.063l-1.499.052c.024.673.052 1.368.085 2.08zM195.864 20.806l-1.488-.185a83.57 83.57 0 0 1-.258 1.9l1.485.218c.096-.657.183-1.302.261-1.933zM196.542 10.11c0-.348-.003-.675-.007-.98l-1.5.02a73.356 73.356 0 0 1 .001 1.914l1.5.018c.004-.34.006-.664.006-.973zM196.262 16.926l-1.496-.12c-.049.617-.106 1.253-.174 1.91l1.492.152c.069-.666.127-1.315.178-1.942zM195.298 24.666l-1.479-.252c-.105.62-.22 1.249-.343 1.886l1.473.285c.125-.649.241-1.29.349-1.92zM196.489 13.033l-1.499-.055a87.518 87.518 0 0 1-.09 1.915l1.497.088c.04-.681.07-1.332.092-1.948zM192.66 30.042l1.456.355c.156-.64.302-1.273.44-1.901l-1.466-.32a79.394 79.394 0 0 1-.43 1.866zM191.082 16.78l-1.497-.092c-.037.61-.08 1.24-.132 1.89l1.496.117c.051-.657.096-1.297.133-1.915zM187.98 29.835l1.475.277c.12-.636.23-1.266.335-1.892l-1.48-.247a89.451 89.451 0 0 1-.33 1.862zM191.252 12.945l-1.499-.04c-.016.598-.039 1.23-.068 1.892l1.499.066c.03-.672.052-1.311.068-1.918zM190.783 20.607l-1.493-.142a112.75 112.75 0 0 1-.196 1.883l1.49.168c.073-.649.14-1.286.199-1.909zM191.292 10.105c0-.354-.002-.69-.006-1l-1.5.015c.004.308.006.637.006.985l-.005.906 1.5.014zM190.354 24.42l-1.488-.193c-.08.615-.167 1.241-.26 1.874l1.483.221c.096-.642.184-1.276.265-1.901zM185.664 13.438l-1.5-.025c-.01.654-.025 1.344-.044 2.065l1.499.041c.02-.727.034-1.422.045-2.08zM185.554 17.596l-1.499-.054c-.024.668-.052 1.357-.084 2.064l1.498.069c.033-.713.061-1.407.085-2.079zM185.364 21.754l-1.498-.084c-.037.673-.079 1.361-.125 2.06l1.497.1c.046-.705.088-1.398.126-2.076zM185.693 10.098l-.002-.822-1.5.006.002.816-.005 1.248 1.5.01zM183.428 27.851l1.494.13c.06-.7.117-1.392.169-2.075l-1.496-.113c-.051.677-.108 1.363-.168 2.058zM178.68 20.514h1.5v1.913h-1.5zM178.68 24.34h1.5v1.913h-1.5zM178.68 28.166h1.5v1.913h-1.5zM178.68 16.687h1.5V18.6h-1.5zM178.68 9.035h1.5v1.913h-1.5zM178.68 12.861h1.5v1.913h-1.5z"
  ></path>
  <path
    d="M199.58 31.55h-15.006c.054-.501.108-1.003.157-1.498l-1.493-.147c-.054.544-.112 1.094-.172 1.646h-7.273c-.06-.551-.118-1.101-.171-1.645l-1.494.147c.05.495.103.996.157 1.498h-15.007a1.887 1.887 0 0 0-1.86 2.235l2.041 11.031a4.693 4.693 0 0 0 4.615 3.839h7.008c.77 1.227 3.49 2.178 6.898 2.391v33.67h2.899v-33.67c3.409-.213 6.127-1.164 6.898-2.39h7.008a4.693 4.693 0 0 0 4.614-3.84l2.041-11.031a1.887 1.887 0 0 0-406-1.554 1.884 1.884 0 0 0-1.453-.681zm-40.986 1.322a.889.889 0 0 1 .685-.321h4.108l1.309 7.052h-5.184l-1.11-5.999a.888.888 0 0 1 .192-.732zm41.672 0c.17.204.24.47.191.732l-1.11 6h-5.183l1.308-7.053h4.109a.89.89 0 0 1 .685.32zm-15.579 6.731.605-7.052h9.163l-1.308 7.052zm-1.695 8.053h-7.125l-.605-7.053h8.336zm-7.816-8.053-.606-7.052h9.719l-.605 7.052zm-9.463 0-1.309-7.052h9.163l.605 7.052zm-.832 1 1.308 7.053h-2.114a3.693 3.693 0 0 1-3.632-3.02l-.746-4.033zm2.325 7.053-1.308-7.053h8.36l.606 7.053zm16.79 0 .605-7.053h8.36l-1.308 7.053zm8.675 0 1.308-7.053h5.183l-.746 4.033a3.693 3.693 0 0 1-3.631 3.02z"
  ></path>
  <path
    d="M55.74 52.267c2.825 2.511 12.04 1.222 21.866-3.27 7.415-3.39 13.237-7.716 15.624-11.26 1.09-1.616 1.465-3.07.95-4.197-1.646-3.6-11.736-2.517-22.534 2.42a63.144 63.144 0 0 0-4.364 2.208 22.459 22.459 0 0 0-7.264-2.095c-12.347-1.39-23.486 7.492-24.876 19.84-1.391 12.35 7.493 23.487 19.84 24.877 12.35 1.39 23.486-7.492 24.877-19.84.315-2.8.098-5.537-.564-8.113-.336.1-.665.206-1.007.302-11.219 3.16-21.17 2.749-22.549-.872z"
  ></path>
  <path
    d="M167.383 85.315c-2.703 3.573-12.657 9.456-25.16 14.604-14.325 5.898-26.95 8.753-29.634 6.84l-24.575 9.386-9.197-18.198-2.961-5.857a7.976 7.976 0 0 0-5.168-4.137l-.018-.03-27.352-6.077-13.484-2.996a7.976 7.976 0 0 0-1.956-.435l-.208-.046c-.025.01-.049.024-.074.034a7.973 7.973 0 0 0-2.835.352C1.321 86.156.049 111.907.006 113a8 8 0 0 0 1.731 5.29l7.28 9.16 5.777-21.86 2.266.429-10.75 40.683c-1.36 3.083-1.49 6.699-.039 10.032l19.032 43.72-21.147 45.741c-2.896 6.267-.165 13.695 6.102 16.592a12.45 12.45 0 0 0 5.237 1.156c4.722 0 9.242-2.69 11.355-7.257l23.5-50.834a12.498 12.498 0 0 0 .114-10.235l-8.47-19.456 24.647 27.247 1.367 47.393c.196 6.778 5.752 12.14 12.488 12.14.122 0 .245-.003.367-.005 6.9-.2 12.334-5.956 12.135-12.856l-1.5-52a12.504 12.504 0 0 0-3.224-8.026l-29-32.059 11.542-40.408 1.528 3.024 4.645 9.19a8 8 0 0 0 9.994 3.866l47.56-18.165a8 8 0 0 0 4.62-10.328c-.053-.139-.118-.269-.178-.403a161.99 161.99 0 0 0 4.421-1.744c15.433-6.355 26.987-13.83 25.807-16.698-.217-.526-.85-.858-1.83-1.014z"
  ></path>
  <path
    d="M114.767 103.856c1.05 2.551 13.033.037 26.764-5.617 13.731-5.653 24.011-12.305 22.96-14.856-.291-.709-1.43-1.025-3.214-.993-4.633.084-13.634 2.528-23.55 6.61-9.915 4.083-18.028 8.685-21.377 11.888-1.289 1.233-1.875 2.26-1.583 2.968zm25.77-9.286c-5.608 2.31-10.48 3.39-10.882 2.415-.402-.975 3.82-3.638 9.428-5.947s10.48-3.39 10.883-2.415c.401.975-3.82 3.638-9.429 5.947z"
  ></path>
</svg>
