<!-- Generated by IcoMoon.io -->
<svg fill="currentColor" version="1.1" xmlns="http://www.w3.org/2000/svg" width="24" height="24" viewBox="0 0 24 24">
<title>esports</title>
<path d="M20.144 14.338l-0.054 0.093-0.104 0.085-0.099 0.028-0.118-0.016-0.040-0.040-0.047-0.005-0.042-0.031-1.024-0.841c0.039-0.124 0.065-0.252 0.065-0.388 0-0.14-0.029-0.273-0.069-0.399l1.033-0.843 0.092-0.057 0.029-0.010 0.135-0.011 0.088 0.028 0.081 0.058 0.039 0.035 0.008 0.014 0.032 0.101c0.133 0.342 0.201 0.705 0.201 1.077 0 0.376-0.069 0.742-0.208 1.122v0zM18.652 15.837l-0.058 0.080-0.037 0.038-0.014 0.008-0.101 0.031c-0.347 0.133-0.713 0.2-1.091 0.2-0.381 0-0.751-0.069-1.135-0.206l-0.093-0.053-0.086-0.104-0.029-0.098 0.016-0.115 0.040-0.040 0.006-0.046 0.030-0.041 0.851-1.013c0.125 0.038 0.255 0.065 0.393 0.065 0.142 0 0.276-0.028 0.405-0.069l0.853 1.022 0.057 0.091 0.010 0.028 0.011 0.134-0.029 0.088zM15.008 14.483l-0.047 0.005-0.040 0.040-0.117 0.016-0.099-0.028-0.105-0.085-0.053-0.093c-0.139-0.38-0.208-0.745-0.208-1.122 0-0.373 0.068-0.735 0.201-1.077l0.032-0.101 0.008-0.014 0.039-0.035 0.081-0.058 0.088-0.028 0.135 0.011 0.029 0.010 0.091 0.057 1.034 0.843c-0.041 0.126-0.069 0.259-0.069 0.399 0 0.136 0.027 0.265 0.065 0.388l-1.025 0.841-0.041 0.031zM16.038 10.615l0.086-0.104 0.093-0.054c0.385-0.136 0.754-0.205 1.135-0.205 0.378 0 0.744 0.067 1.091 0.2l0.101 0.031 0.014 0.008 0.037 0.038 0.058 0.080 0.029 0.088-0.011 0.133-0.010 0.029-0.057 0.091-0.853 1.021c-0.129-0.040-0.263-0.068-0.405-0.068-0.138 0-0.268 0.026-0.393 0.065l-0.851-1.012-0.030-0.042-0.006-0.046-0.040-0.039-0.016-0.116 0.029-0.097zM9.484 13.837h-1.842v1.82c0 0.325-0.267 0.589-0.595 0.589s-0.595-0.264-0.595-0.589v-1.82h-1.843c-0.328 0-0.595-0.264-0.595-0.588s0.267-0.588 0.595-0.588h1.843v-1.821c0-0.325 0.266-0.588 0.595-0.588s0.595 0.264 0.595 0.588v1.821h1.842c0.329 0 0.595 0.263 0.595 0.588s-0.266 0.588-0.595 0.588v0zM16.826 7.035c-0.574 0.189-2.321 0.637-4.175 0.764v-1.333c0.002-0.244 0.075-2.381 2.070-2.381 0.328 0 0.595-0.264 0.595-0.588s-0.267-0.588-0.595-0.588c-2.579 0-3.261 2.325-3.261 3.555v1.335c-1.854-0.126-3.601-0.575-4.175-0.764-2.774-0.91-6.239 0.906-6.285 9.629-0.040 7.388 5.989 1.741 11.038 1.741 0.006 0 0.011 0.001 0.017 0.001s0.012-0.001 0.017-0.001c5.049 0 11.078 5.647 11.038-1.741-0.046-8.723-3.511-10.539-6.285-9.629v0z"></path>
</svg>
