<!-- Generated by IcoMoon.io -->
<svg fill="currentColor" version="1.1" xmlns="http://www.w3.org/2000/svg" width="24" height="24" viewBox="0 0 24 24">
<title>football</title>
<path d="M6.876 17.473l-0.938 2.063 2.813 2.157c1.407 0.469 2.813 0.656 4.22 0.563l1.594-1.876-3.095-2.626-4.595-0.281z"></path>
<path d="M13.066 13.159l-1.313 4.408 3.095 2.532 4.126-1.782 1.407-4.314-2.626-2.72z"></path>
<path d="M8.658 9.783l0.75-4.501-2.532-1.219-2.72 2.157-0.75 0.563-0.563 4.032 2.438 1.594 3.376-2.626z"></path>
<path d="M7.814 2.844c-1.407 0.656-2.72 1.688-3.751 3.001-0.094 0.094-0.094 0.188-0.188 0.281l3.095-2.438 0.844-0.844z"></path>
<path d="M13.066 12.784l4.595-1.782 0.375-4.314-3.939-2.813-4.314 1.407-0.75 4.408 4.032 3.095z"></path>
<path d="M22.162 11.471l-1.407 2.532-1.5 4.501 0.375 0.563c0.188-0.188 0.375-0.469 0.563-0.656 1.5-1.969 2.251-4.22 2.157-6.564l-0.188-0.375z"></path>
<path d="M18.223 6.501l2.532 0.281-0.094-0.375c-0.563-0.844-1.313-1.688-2.251-2.344-1.407-1.125-3.001-1.782-4.595-2.063l0.563 1.688 3.845 2.813z"></path>
<path d="M22.256 11.284v0c-0.094-1.5-0.563-3.095-1.407-4.501v0.094l1.407 4.408z"></path>
<path d="M2.656 11.19l-0.656 1.876c0.188 1.782 0.844 3.564 1.969 5.064l1.782 1.219 0.938-2.063-1.5-4.408z"></path>
</svg>
