<?xml version="1.0" encoding="UTF-8" standalone="no"?>
<svg
  fill="currentColor"
  xmlns:dc="http://purl.org/dc/elements/1.1/"
  xmlns:cc="http://creativecommons.org/ns#"
  xmlns:rdf="http://www.w3.org/1999/02/22-rdf-syntax-ns#"
  xmlns:svg="http://www.w3.org/2000/svg"
  xmlns="http://www.w3.org/2000/svg"
  xmlns:xlink="http://www.w3.org/1999/xlink"
  xmlns:sodipodi="http://sodipodi.sourceforge.net/DTD/sodipodi-0.dtd"
  xmlns:inkscape="http://www.inkscape.org/namespaces/inkscape"
  width="24"
  height="24"
  viewBox="0 0 24 24"
  version="1.1"
  id="svg9"
  sodipodi:docname="formula_1.svg"
  inkscape:version="0.92.3 (2405546, 2018-03-11)"
>
  <metadata id="metadata13">
    <rdf:RDF>
      <cc:Work rdf:about="">
        <dc:format>image/svg+xml</dc:format>
        <dc:type rdf:resource="http://purl.org/dc/dcmitype/StillImage" />
        <dc:title></dc:title>
      </cc:Work>
    </rdf:RDF>
  </metadata>
  <sodipodi:namedview
    pagecolor="#ffffff"
    bordercolor="#666666"
    borderopacity="1"
    objecttolerance="10"
    gridtolerance="10"
    guidetolerance="10"
    inkscape:pageopacity="0"
    inkscape:pageshadow="2"
    inkscape:window-width="2400"
    inkscape:window-height="1271"
    id="namedview11"
    showgrid="false"
    inkscape:zoom="9.8333333"
    inkscape:cx="12"
    inkscape:cy="12"
    inkscape:window-x="-9"
    inkscape:window-y="-9"
    inkscape:window-maximized="1"
    inkscape:current-layer="svg9"
  />
  <defs id="defs3">
    <path
      id="formula1-a"
      d="M22.1480599,1.78139461 L23.4646092,1.56051883 L20.0440887,15.7689457 L19.4597917,15.8600414 C19.019688,15.9286751 18.5845998,15.9586244 18.1532732,15.9586244 C16.137072,15.9586244 14.2261948,15.2885097 12.5046498,14.6832852 C11.4752336,14.3201504 10.502241,13.9794776 9.5756411,13.7922947 C7.22716792,13.3143545 4.66052372,14.3164067 3.78909347,14.7032513 L1.731515,23.3286375 C1.63622191,23.7292088 1.27636509,24 0.878892597,24 C0.812438203,24 0.743476098,23.9925127 0.675767848,23.9762902 C0.204317814,23.8652283 -0.0878307444,23.3935275 0.0237624818,22.9243225 L5.12445062,1.54429632 C5.17962031,1.31094169 5.3150368,1.11627151 5.50060755,0.996474483 L5.50938456,0.992730825 C5.5683158,0.954046368 5.63978562,0.939071739 5.70874774,0.916609796 C5.63727792,0.934080196 5.58336208,0.950302711 5.58336208,0.950302711 C5.73884028,0.881668995 9.47407872,-0.753061309 13.2519483,0.426190705 L13.9929774,0.660793222 C16.7514617,1.53306535 19.133789,2.28803621 22.1480599,1.78139461 Z M19.4259375,10.7898817 L20.391407,6.77917695 C18.8855254,7.02501044 17.5125525,6.92393169 16.0768869,6.56578849 L16.8743397,3.30506308 C16.8530241,3.30007154 16.8329624,3.29383211 16.8116468,3.28884057 C16.7915851,3.28384902 16.7715234,3.28135325 16.7514617,3.27636171 L16.7527156,3.27386594 C15.6443064,3.01929725 14.5609745,2.68486387 13.4575808,2.33545587 L12.721567,2.10459701 C12.3153174,1.97731267 11.9103218,1.90243952 11.5090877,1.84878044 C11.4990569,1.84753255 11.49028,1.84753255 11.4815029,1.84628466 L10.7304429,4.8249879 C8.90232017,4.41942504 7.24973734,4.74013167 6.08490468,5.14195087 L5.63853177,7.03998507 L5.0730425,9.43717355 C6.26295229,8.90682211 8.02336679,8.36149605 9.74867329,8.72587868 L8.93993587,11.9404323 C8.98256698,11.9429281 9.0251981,11.9416802 9.06908308,11.9466717 L9.06532151,11.9566548 C9.35245464,11.9803647 9.63958778,12.0103139 9.92672091,12.0677167 C10.9749449,12.2798572 12.0520077,12.6579666 13.0927085,13.024845 C13.490181,13.1646082 13.8926689,13.3031235 14.2951569,13.4366473 C14.3265032,13.4466304 14.3591036,13.4553656 14.39045,13.4665966 L15.115179,10.502868 C16.1069794,10.7362226 17.1351418,10.8872168 18.172081,10.8872168 C18.5896153,10.8872168 19.0084034,10.8485323 19.4259375,10.7898817 Z M16.0772631,6.56628764 L15.1143013,10.5033671 C13.5030957,10.1127789 11.7401735,9.45639099 10.4487014,8.94226207 C10.2179918,8.85116641 9.98352061,8.7825327 9.74904945,8.72637784 L10.7308191,4.82548705 C11.027983,4.89661654 11.3264009,4.98022488 11.6298342,5.09378248 L11.7639968,5.14369791 C13.2774016,5.71023803 14.8296758,6.24433312 16.0772631,6.56628764 Z"
    />
  </defs>
  <g id="g7" transform="scale(1.0228169,1)">
    <use
      xlink:href="#formula1-a"
      id="use5"
      fill-rule="nonzero"
      x="0"
      y="0"
      width="100%"
      height="100%"
    />
  </g>
</svg>
