<!-- Generated by IcoMoon.io -->
<svg fill="currentColor" version="1.1" xmlns="http://www.w3.org/2000/svg" width="24" height="24" viewBox="0 0 24 24">
<title>futsal</title>
<path d="M3.533 3.522c1.099-1.116 2.42-2.010 3.892-2.611l0.078-0.028c1.334-0.559 2.883-0.883 4.509-0.883s3.175 0.325 4.588 0.912l-0.079-0.029c1.549 0.629 2.87 1.523 3.968 2.637l0.001 0.002c1.114 1.1 2.007 2.421 2.61 3.891l0.028 0.078c0.559 1.334 0.883 2.883 0.883 4.509s-0.325 3.175-0.912 4.588l0.029-0.079c-0.629 1.549-1.523 2.87-2.637 3.968l-0.002 0.001c-1.1 1.114-2.421 2.007-3.891 2.61l-0.078 0.028c-1.335 0.559-2.887 0.883-4.514 0.883s-3.179-0.325-4.594-0.912l0.079 0.029c-3.010-1.253-5.355-3.598-6.578-6.528l-0.030-0.080c-0.562-1.335-0.888-2.886-0.888-4.514 0-3.314 1.353-6.312 3.537-8.472l0.001-0.001zM2.333 8.865c0.16-0.282 0.311-0.517 0.474-0.744l-0.016 0.024c0.135-0.187 0.267-0.351 0.408-0.507l-0.005 0.005c0.077-0.34 0.175-0.635 0.296-0.917l-0.013 0.034c0.122-0.295 0.242-0.539 0.377-0.774l-0.017 0.032c-0.305 0.393-0.591 0.836-0.837 1.302l-0.024 0.050c-0.216 0.408-0.433 0.901-0.617 1.41l-0.027 0.084zM9.007 6.88c0.132-0.474 0.273-0.869 0.438-1.251l-0.024 0.062c0.274-0.619 0.618-1.151 1.031-1.621l-0.006 0.007c-0.131-0.237-0.283-0.441-0.459-0.622l0.001 0.001c-0.231-0.241-0.493-0.451-0.779-0.623l-0.017-0.009c-0.044-0.011-0.076-0.011-0.087 0l-0.229 0.044c-0.305 0.033-0.589 0.065-0.851 0.12l-0.502 0.098-0.022 0.033-0.142 0.087-0.065-0.022c-0.543 0.378-1.017 0.787-1.446 1.239l-0.004 0.004-0.153 0.164-0.033 0.022c-0.739 0.811-1.297 1.799-1.602 2.894l-0.012 0.050 1.080 1.080c0.629-0.563 1.372-1.015 2.188-1.315l0.047-0.015c0.47-0.178 1.024-0.327 1.597-0.419l0.050-0.007zM16.956 3.086c-1.389-0.786-3.050-1.25-4.819-1.25-0.668 0-1.32 0.066-1.95 0.192l0.063-0.011-0.196 0.098-0.251 0.185c0.321 0.198 0.595 0.437 0.824 0.714l0.004 0.006c0.24 0.294 0.414 0.502 0.523 0.632 0.226-0.023 0.489-0.036 0.754-0.036 0.551 0 1.089 0.057 1.608 0.165l-0.051-0.009c0.578 0.109 1.145 0.251 1.701 0.414 0.26-0.264 0.558-0.489 0.885-0.666l0.020-0.010q0.425-0.229 0.883-0.425zM11.602 14.622c0.033-0.458 0.065-1.123 0.098-2.203 0.022-0.912 0.132-1.786 0.322-2.63l-0.017 0.089c-0.284-0.196-0.687-0.48-1.199-0.861-0.583-0.439-1.099-0.889-1.581-1.373l-0-0c-0.606 0.099-1.145 0.247-1.66 0.444l0.057-0.019c-0.867 0.35-1.612 0.825-2.252 1.412l0.005-0.005c-0.307 0.675-0.52 1.459-0.597 2.282l-0.002 0.030c-0.019 0.241-0.030 0.522-0.030 0.806 0 0.227 0.007 0.452 0.021 0.675l-0.002-0.031c0.523 0.761 1.148 1.407 1.865 1.936l0.022 0.015c0.438 0.34 0.931 0.652 1.453 0.914l0.051 0.023zM2.443 15.604c-0.011-0.142-0.022-0.338-0.033-0.622-0.011-0.305-0.011-0.491-0.011-0.643q-0.131-0.262-0.262-0.556c-0.076-0.164-0.142-0.327-0.229-0.567 0.055 0.36 0.131 0.752 0.218 1.189s0.207 0.829 0.316 1.199zM8.778 19.911c-0.243-0.351-0.443-0.756-0.58-1.189l-0.009-0.032c-0.142-0.458-0.251-0.851-0.316-1.178-0.030-0.103-0.053-0.226-0.065-0.351l-0.001-0.008c-0.011-0.12-0.033-0.207-0.044-0.294-0.294-0.174-0.774-0.491-1.461-0.97-0.75-0.536-1.391-1.163-1.925-1.875l-0.016-0.022c-0.125 0.078-0.272 0.154-0.425 0.22l-0.022 0.009c-0.275 0.111-0.498 0.218-0.713 0.335l0.037-0.018c-0 0.014-0 0.031-0 0.048 0 0.294 0.016 0.584 0.047 0.87l-0.003-0.035c0.033 0.305 0.065 0.589 0.109 0.851 0.088 0.541 0.229 1.025 0.419 1.483l-0.016-0.043c0.132 0.326 0.267 0.598 0.42 0.859l-0.017-0.031c0.164 0.196 0.305 0.36 0.447 0.523 0.143 0.163 0.297 0.309 0.462 0.442l0.007 0.006c0.414 0.207 0.731 0.349 0.97 0.447l0.72 0.294c0.036 0.001 0.079 0.002 0.121 0.002 0.308 0 0.609-0.032 0.899-0.094l-0.028 0.005c0.395-0.078 0.725-0.165 1.047-0.269l-0.065 0.018zM21.307 9.792c-0.011-0.065-0.022-0.164-0.044-0.316-0.020-0.169-0.051-0.321-0.092-0.468l0.005 0.021c-0.129-0.593-0.276-1.093-0.452-1.579l0.027 0.085c-0.297-0.817-0.617-1.508-0.986-2.166l0.038 0.073c-0.020-0.024-0.035-0.054-0.043-0.086l-0-0.002c-0.196-0.229-0.393-0.436-0.589-0.643-0.197-0.194-0.406-0.377-0.628-0.545l-0.016-0.011c-0.174-0.076-0.36-0.164-0.556-0.24-0.218-0.087-0.36-0.142-0.447-0.174-0.011 0.011-0.022 0.022-0.033 0.011s-0.022 0-0.033 0.011c-0.196 0.076-0.458 0.196-0.774 0.349-0.342 0.166-0.636 0.366-0.897 0.603l0.003-0.003c0.109 0.207 0.24 0.502 0.382 0.851 0.142 0.35 0.273 0.773 0.371 1.208l0.011 0.056c0.022 0.153 0.055 0.327 0.076 0.512 0.021 0.138 0.033 0.296 0.033 0.458v0c0.834 0.333 1.552 0.774 2.18 1.317l-0.010-0.008c0.632 0.545 1.112 0.981 1.418 1.287l0.022-0.011 0.076-0.044 0.36-0.207c0.207-0.109 0.403-0.218 0.6-0.338zM19.137 14.982v0c0.42-0.829 0.667-1.807 0.667-2.843 0-0.351-0.028-0.696-0.083-1.032l0.005 0.037-0.022-0.022v-0.044c-0.24-0.273-0.687-0.698-1.319-1.276-0.605-0.553-1.323-0.994-2.114-1.283l-0.045-0.014c-0.578 0.262-1.221 0.556-1.963 0.883-0.414 0.201-0.927 0.408-1.454 0.583l-0.095 0.027c-0.177 0.769-0.284 1.656-0.294 2.566l-0 0.008c-0.033 0.981-0.044 1.69-0.044 2.094q0.54 0.376 1.276 0.883c0.567 0.403 1.156 0.829 1.745 1.276 0.87-0.14 1.649-0.438 2.339-0.866l-0.027 0.016c0.543-0.323 1.010-0.651 1.45-1.009l-0.022 0.017zM14.851 21.797c-0.251-0.142-0.48-0.284-0.687-0.414-0.262-0.172-0.488-0.371-0.684-0.596l-0.003-0.004c-0.251 0.011-0.785 0.011-1.625-0.022-0.788-0.021-1.542-0.12-2.268-0.288l0.077 0.015c-0.218 0.076-0.523 0.153-0.905 0.251s-0.763 0.164-1.145 0.229l0.174 0.316c1.257 0.607 2.734 0.961 4.294 0.961 0.684 0 1.351-0.068 1.997-0.198l-0.064 0.011c0.13-0.016 0.245-0.039 0.356-0.070l-0.018 0.004c0.11-0.030 0.24-0.053 0.373-0.065l0.009-0.001 0.12-0.131zM19.235 19.289c0.333-0.337 0.641-0.7 0.919-1.085l0.019-0.027c0.044-0.12 0.098-0.327 0.174-0.643 0.062-0.269 0.105-0.583 0.12-0.905l0-0.011q-0.18-0.131-0.458-0.327c-0.207-0.142-0.393-0.284-0.556-0.414-0.453 0.341-0.966 0.673-1.502 0.969l-0.068 0.034c-0.642 0.362-1.388 0.639-2.179 0.789l-0.046 0.007c-0.221 0.598-0.478 1.112-0.783 1.593l0.020-0.034c-0.255 0.402-0.506 0.747-0.777 1.075l0.014-0.018c0.247 0.257 0.535 0.472 0.854 0.635l0.018 0.008 0.229 0.109c0.196 0.098 0.327 0.174 0.414 0.207 0.174-0.022 0.327-0.033 0.447-0.044 0.142-0.011 0.283-0.022 0.425-0.022 0.76-0.375 1.415-0.8 2.014-1.29l-0.018 0.015c0.266-0.198 0.501-0.402 0.72-0.621l0-0z"></path>
</svg>
