<!-- Generated by IcoMoon.io -->
<svg fill="currentColor" version="1.1" xmlns="http://www.w3.org/2000/svg" width="24" height="24" viewBox="0 0 24 24">
<title>golf</title>
<path d="M8.693 12.563c0.438 0 0.792-0.343 0.792-0.766s-0.355-0.765-0.792-0.765c-0.438 0-0.792 0.342-0.792 0.765s0.355 0.766 0.792 0.766z"></path>
<path d="M11.235 12.191c0.438 0 0.792-0.343 0.792-0.766s-0.355-0.765-0.792-0.765c-0.438 0-0.792 0.342-0.792 0.765s0.355 0.766 0.792 0.766z"></path>
<path d="M13.731 11.425c0.438 0 0.792-0.343 0.792-0.766s-0.355-0.765-0.792-0.765c-0.438 0-0.792 0.342-0.792 0.765s0.355 0.766 0.792 0.766z"></path>
<path d="M15.587 9.821c0.438 0 0.792-0.343 0.792-0.766s-0.355-0.765-0.792-0.765c-0.438 0-0.792 0.342-0.792 0.765s0.355 0.766 0.792 0.766z"></path>
<path d="M16.995 7.817c0.438 0 0.792-0.343 0.792-0.766s-0.355-0.765-0.792-0.765c-0.438 0-0.792 0.342-0.792 0.765s0.355 0.766 0.792 0.766z"></path>
<path d="M12.542 17.422c-0.089 0.003-0.179 0.004-0.268 0.004-1.132 0-2.219-0.216-3.225-0.596l-0.224 0.475c0 0 1.968 0.699 2.32 2.757h0.301l0.293 2.644h1.074l0.293-2.644h0.302c0.353-2.059 2.32-2.757 2.32-2.757l-0.22-0.466c-0.936 0.349-1.934 0.554-2.965 0.583z"></path>
<path d="M7.007 3.913c1.327-1.36 3.123-2.14 5.056-2.195 0.072-0.002 0.144-0.003 0.216-0.003 2.169 0 4.129 0.934 5.461 2.414-0.415 0.025-0.745 0.35-0.745 0.756 0 0.423 0.355 0.766 0.792 0.766 0.33 0 0.613-0.196 0.732-0.474 0.163 0.269 0.306 0.549 0.432 0.839-0.287 0.106-0.492 0.37-0.492 0.684 0 0.302 0.135 0.524 0.458 0.674 0.298 0.139 0.522 0.345 0.557 0.644 0.004 0.034 0.005 0.069 0.008 0.102-0.015 0.394-0.345 0.71-0.757 0.71-0.146 0-0.399-0.176-0.71-0.17-0.421 0.009-0.763 0.33-0.763 0.737 0 0.231 0.064 0.399 0.271 0.588s0.31 0.338 0.31 0.578c0 0.407-0.341 0.737-0.762 0.737-0.219 0-0.426-0.049-0.571-0.215s-0.339-0.257-0.568-0.257c-0.421 0-0.763 0.329-0.763 0.736 0 0.146 0.055 0.265 0.132 0.389s0.11 0.249 0.11 0.392c0 0.407-0.341 0.737-0.763 0.737-0.316 0-0.535-0.166-0.72-0.446s-0.372-0.389-0.66-0.389c-0.421 0-0.795 0.291-0.795 0.698 0 0.096 0.063 0.314 0.063 0.38 0 0.406-0.341 0.736-0.762 0.736-0.37 0-0.664-0.26-0.733-0.597-0.071-0.336-0.39-0.589-0.759-0.589-0.409 0-0.696 0.224-0.762 0.709s-0.328 0.709-0.733 0.709c-0.405 0-0.725-0.257-0.703-0.904 0.013-0.393-0.341-0.737-0.763-0.737-0.305 0-0.564 0.176-0.686 0.427-0.24-0.288-0.46-0.591-0.652-0.914 0.044 0.007 0.085 0.026 0.132 0.026 0.438 0 0.792-0.343 0.792-0.766s-0.355-0.766-0.792-0.766c-0.288 0-0.528 0.156-0.667 0.379-0.244-0.666-0.39-1.376-0.412-2.119-0.057-1.868 0.642-3.646 1.969-5.006zM12.033 0.718c-2.209 0.063-4.261 0.954-5.779 2.509-1.516 1.554-2.316 3.586-2.25 5.721 0.132 4.329 3.818 7.763 8.269 7.763 0.082 0 0.164-0.001 0.246-0.004 4.562-0.13 8.164-3.822 8.029-8.23s-3.933-7.9-8.516-7.759z"></path>
</svg>
