<!-- Generated by IcoMoon.io -->
<svg fill="currentColor" version="1.1" xmlns="http://www.w3.org/2000/svg" width="24" height="24" viewBox="0 0 24 24">
<title>handball</title>
<path d="M18.273 20.947c-0.263-0.589-0.503-1.126-0.654-1.46-0.504-1.12-1.386-1.861-1.943-2.105s-1.385-0.774-2.008-1.189c-0.624-0.414-1.58-0.997-2.032-1.479s-0.678-1.127-0.891-1.465c-0.439-0.694-0.984-1.264-0.34-1.501 0.935-0.344 1.45 0.246 2.22 0.867s1.164 0.533 1.164 0.533c-0.242-1.055-0.585-2.286-1.136-3.189s-1.099-2.754-1.327-3.772c-0.248-1.106-0.258-1.659 0.163-1.806 0.748-0.261 0.756 1.097 1.231 2.227s2.058 3.124 2.058 3.124-0.122-1.203-0.505-2.997c-0.3-1.402-0.657-2.103-0.917-2.52-0.436-0.704-0.492-1.030-0.167-1.262 0.407-0.292 0.795 0.2 1.226 0.79 1.23 1.679 2.246 4.582 2.246 4.582 0.243-1.107 0.363-2.674-0.69-4.349l-0.613-1.108c0 0-0.289-0.608 0.259-0.576 0.607 0.036 1.134 0.726 1.376 1.068 1.27 1.799 2.049 5.23 2.049 5.23 0.614-2.202 0.17-3.014-0.677-3.781-0.234-0.212-0.324-0.418-0.331-0.571-0.034-0.702 0.707-0.182 1.298 0.197 1.462 0.938 0.942 2.119 1.438 3.637 0.516 1.578 0.582 2.73 0.834 4.665 0.229 1.764 0.239 2.99 0.548 3.527 0.123 0.213 0.359 0.89 0.6 1.626-1.239 1.371-3.481 2.565-4.482 3.057v0zM8.853 17.978c-0.5 0.070-0.991 0.101-1.469 0.101-0.936 0-1.817-0.12-2.613-0.298-0.495-0.523-0.929-1.104-1.289-1.734 1.33 0.488 3.189 0.93 5.192 0.651 0.957-0.133 1.798-0.37 2.52-0.645 0.381 0.308 0.821 0.605 1.244 0.881-0.957 0.441-2.156 0.846-3.586 1.045v0zM2.397 12.883c-0.062-0.426-0.105-0.86-0.105-1.304 0-0.064 0.008-0.125 0.010-0.188 0.922 0.494 2.207 0.999 3.666 1.057-1.032-4.145 0.338-7.204 2.044-9.27 0.735-0.292 1.513-0.493 2.327-0.582-2.002 1.719-4.37 4.899-3.050 9.778 0.571-0.082 1.082-0.207 1.534-0.346-0.018 0.465 0.166 0.879 0.389 1.242-0.592 0.183-1.278 0.341-2.048 0.429-0.317 0.036-0.628 0.054-0.931 0.054-1.477 0-2.791-0.398-3.834-0.868v0zM23.983 17.489c-0.423-1.292-0.59-1.662-0.701-1.852-0.089-0.198-0.165-0.95-0.226-1.554-0.045-0.449-0.097-0.954-0.169-1.511l-0.122-0.985c-0.171-1.401-0.305-2.508-0.765-3.916-0.123-0.373-0.165-0.741-0.21-1.132-0.11-0.942-0.259-2.23-1.759-3.192l-0.102-0.065c-0.445-0.287-0.904-0.583-1.413-0.662-0.161-0.025-0.317-0.027-0.468-0.007-0.669-0.949-1.374-1.469-2.152-1.589l-0.2-0.021c-0.605-0.036-1.13 0.208-1.442 0.669-0.001 0.001-0.001 0.002-0.002 0.003-0.665-0.195-1.355-0.331-2.069-0.39-0.28-0.023-0.561-0.043-0.847-0.043-0.508 0-1.004 0.050-1.493 0.121-4.673 0.68-8.342 4.488-8.793 9.23-0.030 0.325-0.050 0.653-0.050 0.985 0 0.194 0.018 0.383 0.030 0.573 0.059 1.075 0.281 2.105 0.645 3.068 0.251 0.664 0.566 1.294 0.942 1.885 1.836 2.886 5.054 4.81 8.719 4.81 1.541 0 2.997-0.348 4.312-0.954 0.339-0.156 0.656-0.347 0.975-0.536l1.016 2.274 1.204-0.591c1.237-0.608 3.515-1.852 4.87-3.35l0.503-0.557-0.233-0.713z"></path>
</svg>
