<!-- Generated by IcoMoon.io -->
<svg fill="currentColor" version="1.1" xmlns="http://www.w3.org/2000/svg" width="24" height="24" viewBox="0 0 24 24">
<title>bet_history</title>
<path d="M13.038 3.013c-4.523 0-8.283 3.328-8.958 7.662h-1.819c-0.255 0-0.331 0.161-0.169 0.358l2.278 2.765c0.162 0.197 0.424 0.194 0.582-0.007l2.161-2.752c0.158-0.201 0.078-0.365-0.178-0.365h-1.578c0.662-3.638 3.853-6.405 7.681-6.405 4.306 0 7.809 3.501 7.809 7.804 0 4.175-3.297 7.594-7.425 7.795v-0.003c-2.126 0.104-4.285-0.654-5.905-2.272-0.246-0.245-0.644-0.245-0.889 0s-0.246 0.643 0 0.889c1.753 1.752 4.051 2.634 6.353 2.648 0.019 0.002 0.038 0.006 0.058 0.006 4.999 0 9.066-4.065 9.066-9.061s-4.067-9.061-9.066-9.061z"></path>
<path d="M13.144 4.881c3.868 0.101 6.973 3.269 6.973 7.162 0 3.957-3.208 7.164-7.164 7.164-2.166 0-4.108-0.961-5.422-2.481l5.613-4.811v-7.034z"></path>
</svg>
