<!-- Generated by IcoMoon.io -->
<svg
  version="1.1"
  xmlns="http://www.w3.org/2000/svg"
  fill="currentColor"
  width="24"
  height="24"
  viewBox="0 0 32 32"
>
  <title>at-yarisi-ganyan</title>
  <path
    d="M26.92 22.08a4.8 4.8 0 01-.03 9.6h-.04a4.8 4.8 0 01.04-9.6h.03zm.97 3.93v-2.06-.08a.89.89 0 00-.94-.89h-.06a.9.9 0 00-.9.96q-.03 1.41 0 2.82c0 .67.37 1 1.1 1q1.16.02 2.31 0c.7 0 1.1-.35 1.09-.9-.01-.51-.4-.83-1.07-.84h-1.53zM23.46.32l-.15 1.43.82-1.27-.35 1.63a3.4 3.4 0 01.54 2.4v-.02c.99 3.17-.11 3.17-.11 3.17-.82.12-1.45-1.11-1.45-1.11a3.26 3.26 0 01-1.02-1.43c-.98.83-.2 4.8-.2 4.8.6 1.5-.67 3.33-.67 3.33s-.43.12.16.2 2.43 1.9 2.43 1.9c2 .83 2 4.88 2 4.88.36 1.55-.07 1.43-.07 1.43-1.93-.88-1.14-1.47-1.14-1.47a.54.54 0 00.47-.54v-.02c-.63-.35-.82-2.26-.82-2.26-.4-1.03-2.04-1.74-2.04-1.74-1.5-.75-1.22.04-1.22.04 1.3 1.27.63 2.02.63 2.02l-.35 2.97c-.16 1.55-.87 1.67-.87 1.67-.74 0-.59-1.07-.59-1.07v-.06a.7.7 0 01.8-.7.81.81 0 01.27-.83l-.12-2.25c-.67-.84-2-2.66-2-2.66-.28-.72-.79-.32-.79-.32-2.55 1.67-7.1.44-7.1.44-.02.83-.28 1.6-.72 2.23l.01-.01c-.7 1.47-.04 2.3-.04 2.3l2.9 2.26c.9.8.6 1.43.6 1.43h-1.14c-.94 0-.32-1.2-.32-1.2-.74-.19-3.21-2.01-3.21-2.01-1.14-.24-.43-1.99-.43-1.99 0-1.14-.4-.95-.4-.95a9.84 9.84 0 01-1.13 1.87c-.67 2.65 2.35 4.12 2.35 4.12.67.48.4.75.4.75H8.31c-.79 0-.43-.75-.43-.75-.86-.04-1.96-2.18-1.96-2.18-1.84-1.55-.86-2.26-.86-2.26a3.07 3.07 0 001.1-2.35v-.03c-2.48-2.42-1.85-4.88-1.85-4.88-.67-.28-.98.52-.98.52-.66 5.15-2.9 5.2-2.9 5.2C-.5 9.85 4.6 10.4 4.6 10.4c2.12-3.21 8.04-1.79 8.04-1.79 2.94-.63 4.31-3.25 4.31-3.25 1.95-5.05 5.71-4.1 5.71-4.1z"
  ></path>
</svg>
