<!-- Generated by IcoMoon.io -->
<svg fill="currentColor" version="1.1" xmlns="http://www.w3.org/2000/svg" width="24" height="24" viewBox="0 0 24 24">
<title>ice_hockey</title>
<path d="M8.215 17.386c1.762-0.575 3.651-1.547 5.464-2.887s3.303-2.866 4.382-4.39c1.060-1.498 1.721-2.997 1.895-4.321 0.106-0.801 0.016-1.53-0.236-2.172-0.238-0.604-0.782-0.975-0.985-1.081-2.487-1.306-7.154-0.181-11.41 2.965-5.039 3.725-7.592 8.87-5.701 11.492 0 0 0.365 0.525 1.648 0.842 1.345 0.332 3.074 0.162 4.943-0.447z"></path>
<path d="M20.677 3.873c0.593 1.019 0.52 2.39-0.63 4.933-0.929 2.055-5.393 8.015-12.83 9.85-3.111 0.767-4.474-0.165-4.707-0.391l1.99 2.349c2.325 2.648 7.402 1.614 12.467-2.083s7.631-8.804 5.731-11.406l-2.021-3.252z"></path>
</svg>
