<svg xmlns="http://www.w3.org/2000/svg" width="24" height="24"
     viewBox="0 0 512 512" fill="none" stroke="currentColor"
     stroke-width="30" stroke-linecap="round" stroke-linejoin="round">
  <path d="M457 160.724H55c-22.091 0-40 17.909-40 40v206.68c0 22.091 17.909 40 40 40h165.961l35.038 45.039 35.038-45.039H457c22.091 0 40-17.909 40-40v-206.68c0-22.091-17.909-40-40-40z"/>
  <path d="M85.212 247.067v113.897c1.26.216 39.917 0 39.917 0M185.843 247.067V361.06M426.788 247.588h-47.594V360.54h47.594M423.278 304.064h-44.084M246.157 247.067l34.957 112.281c.732 2.299 3.655 2.277 4.359-.033l33.384-112.039M370.771 101.148c-16.51-47.495-61.652-81.59-114.771-81.59s-98.261 34.095-114.771 81.59"/>
  <path d="M302.733 101.148c-11.286-13.202-28.044-21.59-46.733-21.59s-35.448 8.389-46.733 21.59"/>
</svg>