<svg xmlns="http://www.w3.org/2000/svg" version="1.1" xmlns:xlink="http://www.w3.org/1999/xlink" width="512" height="512" x="0" y="0" viewBox="0 0 48 58" style="enable-background:new 0 0 512 512" xml:space="preserve" class=""><g><g fill="none" fill-rule="evenodd"><path fill="#ecf0f1" d="M44 20a19.987 19.987 0 0 1-33.12 15.08A19.956 19.956 0 0 1 4 20C4 8.954 12.954 0 24 0s20 8.954 20 20z" opacity="0" data-original="#ecf0f1" class=""></path><g fill="#bdc3c7"><path d="m13.255 32.842 6.938-9.824 1.634 1.154-6.938 9.824zM7.793 15.863l.564-1.918 10.914 3.21-.564 1.917zM26.19 24.147l1.635-1.154 6.938 9.824-1.634 1.154zM28.705 17.154l10.914-3.21.564 1.919-10.914 3.21zM23 3h2v12h-2z" fill="#bdc3c7" opacity="1" data-original="#bdc3c7" class=""></path><path d="M44 20c0 .115 0 .231-.008.338C43.803 31.244 34.908 39.987 24 39.987S4.197 31.244 4.008 20.338c0 .116.007.231.015.339l.423-.323c2.07 9.643 10.86 16.337 20.707 15.769 9.846-.568 17.808-8.23 18.755-18.046A19.629 19.629 0 0 1 44 20z" fill="#bdc3c7" opacity="1" data-original="#bdc3c7" class=""></path></g><path fill="#464f5d" d="m30.831 1.2-6.389 4.489a.767.767 0 0 1-.884 0L17.169 1.2c4.413-1.6 9.249-1.6 13.662 0zM18.538 39.238a19.36 19.36 0 0 1-3.661-1.438 19.916 19.916 0 0 1-7.725-7.028h8.057c.333 0 .628.214.732.53zM10.262 15.992l-5.816 4.362a20.183 20.183 0 0 1-.354-2.277A19.807 19.807 0 0 1 8.231 7.708l2.3 7.446a.765.765 0 0 1-.269.838zM31.429 17.9l-2.555 7.73a.769.769 0 0 1-.73.528h-8.288a.769.769 0 0 1-.73-.528l-2.555-7.73a.771.771 0 0 1 .288-.871l6.7-4.713a.77.77 0 0 1 .886 0l6.7 4.713c.276.197.39.55.284.871zM44 20a6.58 6.58 0 0 1-.023.677l-6.236-4.683a.768.768 0 0 1-.273-.842l2.3-7.444A19.88 19.88 0 0 1 44 20zM40.846 30.769a19.916 19.916 0 0 1-7.723 7.031 19.36 19.36 0 0 1-3.661 1.438l2.595-7.938c.104-.316.4-.53.732-.53z" opacity="1" data-original="#464f5d" class=""></path><path fill="#393f4a" d="M18.538 39.238a19.36 19.36 0 0 1-3.661-1.438 19.817 19.817 0 0 1-7.723-7.031h3.208a19.972 19.972 0 0 0 6.776 4.177zM40.846 30.769a19.817 19.817 0 0 1-7.723 7.031 19.36 19.36 0 0 1-3.661 1.438l1.4-4.292a19.972 19.972 0 0 0 6.776-4.177z" opacity="1" data-original="#393f4a"></path><rect width="48" height="22" y="36" fill="#e64c3c" rx="3" opacity="1" data-original="#e64c3c"></rect><path fill="#ffffff" d="M17 41a1 1 0 0 0-1 1v10a1 1 0 0 0 2 0V42a1 1 0 0 0-1-1zM30.372 41.071a1 1 0 0 0-1.3.557L26 49.308l-3.071-7.68a1 1 0 0 0-1.858.744l4 10a1 1 0 0 0 1.858 0l4-10a1 1 0 0 0-.557-1.301zM41 48a1 1 0 0 0 0-2h-5v-3h5a1 1 0 0 0 0-2h-6a1 1 0 0 0-1 1v10a1 1 0 0 0 1 1h6a1 1 0 0 0 0-2h-5v-3zM13 51H8v-9a1 1 0 0 0-2 0v10a1 1 0 0 0 1 1h6a1 1 0 0 0 0-2z" opacity="1" data-original="#ffffff" class=""></path></g></g></svg>