<?xml version="1.0" encoding="UTF-8" standalone="no"?>
<!-- Generator: Adobe Illustrator 23.0.1, SVG Export Plug-In . SVG Version: 6.00 Build 0)  -->

<svg
   fill="currentColor"
   xmlns:dc="http://purl.org/dc/elements/1.1/"
   xmlns:cc="http://creativecommons.org/ns#"
   xmlns:rdf="http://www.w3.org/1999/02/22-rdf-syntax-ns#"
   xmlns:svg="http://www.w3.org/2000/svg"
   xmlns="http://www.w3.org/2000/svg"
   xmlns:sodipodi="http://sodipodi.sourceforge.net/DTD/sodipodi-0.dtd"
   xmlns:inkscape="http://www.inkscape.org/namespaces/inkscape"
   version="1.1"
   id="Layer_1"
   x="0px"
   y="0px"
   viewBox="0 0 24 24"
   xml:space="preserve"
   sodipodi:docname="motorsports.svg"
   width="24"
   height="24"
   inkscape:version="0.92.3 (2405546, 2018-03-11)"><metadata
   id="metadata11"><rdf:RDF><cc:Work
       rdf:about=""><dc:format>image/svg+xml</dc:format><dc:type
         rdf:resource="http://purl.org/dc/dcmitype/StillImage" /><dc:title></dc:title></cc:Work></rdf:RDF></metadata><defs
   id="defs9" /><sodipodi:namedview
   pagecolor="#ffffff"
   bordercolor="#666666"
   borderopacity="1"
   objecttolerance="10"
   gridtolerance="10"
   guidetolerance="10"
   inkscape:pageopacity="0"
   inkscape:pageshadow="2"
   inkscape:window-width="2400"
   inkscape:window-height="1271"
   id="namedview7"
   showgrid="false"
   inkscape:zoom="15.603306"
   inkscape:cx="34.769598"
   inkscape:cy="3.076271"
   inkscape:window-x="-9"
   inkscape:window-y="-9"
   inkscape:window-maximized="1"
   inkscape:current-layer="Layer_1" />
<style
   type="text/css"
   id="style2">
	.st0{fill-rule:evenodd;clip-rule:evenodd;}
</style>
<path
   class="st0"
   d="m 14.149923,13.706461 c 0,0 -1.74322,-0.687907 -2.266968,-1.016227 C 11.249768,12.29156 9.5847188,10.782854 9.5847188,10.782854 9.0140683,10.329461 9.2407651,9.7822619 9.5534508,9.4695769 9.8739532,9.1490739 10.296078,9.0865369 10.78074,9.3132339 l 0.969324,0.453394 c 0.0078,0.0078 0.02345,0.0078 0.03909,0.01563 0.0078,0 0.0078,0 0.01563,0.0078 0.0078,0.0078 0.01563,0.0078 0.03127,0.01563 0.0078,0 0.0078,0.0078 0.01563,0.0078 0.0078,0.0078 0.02345,0.0078 0.03127,0.01564 0.0078,0 0.01563,0.0078 0.02345,0.0078 0.0078,0.0078 0.02345,0.0078 0.03127,0.01563 0.0078,0 0.01563,0.0078 0.02345,0.0078 0.0078,0 0.02345,0.0078 0.03127,0.0078 0.0078,0 0.02345,0.0078 0.03127,0.0078 0.0078,0 0.02345,0.0078 0.03127,0.0078 0.0078,0.0078 0.02345,0.0078 0.03127,0.01564 0.0078,0 0.02345,0.0078 0.03127,0.0078 0.01563,0.0078 0.02345,0.0078 0.03909,0.01563 0.0078,0 0.01563,0.0078 0.02345,0.0078 0.01563,0.0078 0.03127,0.0078 0.03909,0.01563 0.0078,0 0.01563,0.0078 0.02345,0.0078 0.01563,0.0078 0.03127,0.0078 0.0469,0.01563 0.0078,0 0.01563,0.0078 0.02345,0.0078 0.01563,0.0078 0.03127,0.0078 0.0469,0.01563 0.0078,0 0.01563,0.0078 0.02345,0.0078 0.01563,0.0078 0.03127,0.0078 0.0469,0.01563 0.0078,0 0.01563,0 0.02345,0.0078 0.01563,0.0078 0.03127,0.0078 0.05472,0.01563 0.0078,0 0.01563,0 0.01563,0.0078 0.01563,0.0078 0.03909,0.0078 0.05472,0.01563 0.0078,0 0.0078,0 0.01563,0 0.01563,0.0078 0.03909,0.0078 0.05472,0.0078 0.0078,0 0.0078,0 0.01563,0 0.01563,0 0.03909,0.0078 0.05472,0.0078 0.398674,0.07035 0.687908,0.0078 0.367405,-0.4299421 -0.539382,-0.758262 -0.594102,-0.523748 0.250148,-0.945873 2.306054,-1.149118 3.377001,-1.3367295 6.144265,-1.8917458 C 19.019995,6.1707474 18.54315,5.5531941 17.956865,5.0294464 14.204643,1.6915317 9.3580221,1.949497 5.1993088,4.3884417 2.3851419,6.022222 0.36832222,8.7973029 0.04000274,11.99451 c -0.28141669,2.790715 0.96150706,5.346917 2.48584746,7.574799 0.8833358,1.289826 0.6410047,1.031861 2.2044308,0.992775 3.3691831,-0.08599 6.746183,-0.125074 10.224806,-0.02345 2.407677,0.07817 3.853846,0.10944 6.214619,0.609736 1.555609,0.32832 1.90738,0.805165 2.235699,-1.016227 0.140709,-0.797347 0.16416,-1.711951 0.2736,-2.407676 0.01563,-0.10944 0.171977,-0.07817 0.187611,-0.179794 0.09381,-0.469028 0.06254,-0.656639 0.125074,-1.070947 0.0469,-0.297051 -0.117257,-0.234514 -0.179794,-0.414308 -0.187611,-0.508113 -0.375222,-1.016227 -0.562833,-1.52434 -0.21888,-0.03909 -0.43776,-0.07035 -0.664456,-0.10944 0.125074,-0.07035 0.250148,-0.140708 0.375222,-0.211062 -4.924792,-0.179794 -6.824355,0.171976 -8.77082,-0.500297 0,0 0,0 -0.0078,0 M 5.38692,18.818864 c -0.6488219,0 -1.258558,-0.601919 -1.3601807,-1.344546 -0.1016227,-0.742627 0.3361366,-1.344546 0.9849584,-1.344546 0.6488218,0 1.258558,0.601919 1.3601807,1.344546 0.1016227,0.742627 -0.3361366,1.344546 -0.9849584,1.344546 z"
   id="path4"
   inkscape:connector-curvature="0"
   style="clip-rule:evenodd;fill-rule:evenodd;stroke-width:0.07817131" />
</svg>