<!-- Generated by IcoMoon.io -->
<svg
  version="1.1"
  xmlns="http://www.w3.org/2000/svg"
  fill="currentColor"
  width="24"
  height="24"
  viewBox="0 0 32 32"
>
  <title>ralli</title>
  <path
    d="M16 0C7 0 0 7 0 16s7 16 16 16 16-7 16-16S25 0 16 0zm0 4c6 0 10 4 12 9l-1-1c-2-1-6-3-11-3s-9 2-11 3l-1 1c2-5 6-9 12-9zM4 18l1 1h2c3 1 5 3 6 6v3c-4-1-8-5-9-10zm12 1a3 3 0 110-6 3 3 0 010 6zm3 9v-3c1-3 3-5 6-6h2l1-1c-1 5-5 9-9 10z"
  ></path>
  <path d="M16 15a1 1 0 100 2 1 1 0 000-2z"></path>
</svg>
