<svg  width="24" height="24" viewBox="0 0 24 24" fill="currentColor" xmlns="http://www.w3.org/2000/svg">
<path d="M5.3709 9.33262C3.07065 0.331647 12.2216 1.01172 12.2216 1.01172C12.2216 1.01172 21.3726 0.331647 19.0824 9.33262C19.0824 9.33262 18.4906 12.4151 15.487 15.6683C15.487 15.6683 13.4618 17.7164 13.3518 17.9664C13.3518 17.9664 13.2295 18.0077 13.1267 18.9122L13.2968 20.1871C13.2968 20.1871 13.7468 22.585 13.3518 22.74C13.3518 22.74 12.7317 23 12.2266 23C11.7216 23 11.1015 22.74 11.1015 22.74C10.7065 22.585 11.1565 20.1871 11.1565 20.1871L11.3265 18.9122C11.3265 18.3849 11.1015 17.9664 11.1015 17.9664C11.0365 17.8064 8.96629 15.6683 8.96629 15.6683C6.03774 12.934 5.3709 9.33262 5.3709 9.33262Z" stroke="currentColor" stroke-width="1.2" stroke-miterlimit="10"/>
<path d="M14.8234 5.31199C15.2389 4.90507 15.9489 4.89641 16.3731 5.29467C16.806 5.7016 16.806 6.44618 16.3818 6.87908C15.9489 7.30332 15.2909 7.30332 14.858 6.87908C14.3991 6.42886 14.3905 5.74489 14.8234 5.31199ZM14.858 8.69725C15.2736 8.30764 15.9922 8.30764 16.3991 8.7059C16.806 9.10417 16.7974 9.89204 16.3904 10.2903C15.9489 10.7232 15.2562 10.7059 14.8234 10.2643C14.3905 9.81412 14.4078 9.12148 14.858 8.69725ZM12.9879 6.86176C12.5463 7.31198 11.871 7.31198 11.4294 6.87042C11.0052 6.43752 10.9965 5.7016 11.4208 5.29467C11.819 4.91372 12.5723 4.91373 12.9792 5.28602C13.4035 5.67562 13.4035 6.43752 12.9879 6.86176ZM11.4121 8.73188C11.819 8.30764 12.5723 8.29898 12.9879 8.71456C13.4121 9.13014 13.4035 9.86607 12.9706 10.2903C12.5463 10.7059 11.8797 10.7145 11.4468 10.299C11.0052 9.85741 10.9792 9.16478 11.4121 8.73188ZM8.00089 5.32931C8.41648 4.90507 9.16106 4.88775 9.57664 5.29467C10.0095 5.71891 10.0009 6.42021 9.55932 6.86176C9.10911 7.30332 8.44245 7.30332 8.00955 6.84445C7.60263 6.42887 7.59397 5.75355 8.00089 5.32931ZM8.00955 8.69725C8.41648 8.29898 9.14374 8.29898 9.55067 8.69725C10.0009 9.12148 10.0095 9.81412 9.57664 10.2557C9.13509 10.7059 8.45111 10.7145 8.00955 10.2817C7.60263 9.87473 7.60263 9.10417 8.00955 8.69725Z" stroke="currentColor" stroke-miterlimit="10"/>
</svg>
