<svg
  xmlns="http://www.w3.org/2000/svg"
  viewBox="0 0 60 60"
  width="24"
  height="24"
  fill="currentColor"
>
  <path
    fill-rule="evenodd"
    d="m51.196 51.954 2.616 3.666a10.983 10.983 0 0 0 4.136-7.609l-4.38.008zM44.514 53.001l-2.653 3.717c1.535.815 3.283 1.281 5.139 1.281s3.604-.466 5.139-1.281l-2.653-3.717zM53.812 38.38l-2.618 3.668 2.37 3.971 4.385-.008a10.986 10.986 0 0 0-4.138-7.632zM49.435 51.001l2.399-3.979-2.402-4.023h-4.864l-2.402 4.023 2.399 3.979zM8.707 16.293l3.41 3.41A2.99 2.99 0 0 1 13 21.83v24.006l1.536.809c3.976 2.133 9.11 3.305 14.464 3.305 1.771 0 3.533-.136 5.256-.39a13.033 13.033 0 0 1-.255-2.547V47c0-6.487 4.78-11.863 11-12.83V21.83c0-.802.313-1.558.883-2.127l3.41-3.41a.999.999 0 1 1 1.414 1.414l-3.41 3.41a1.004 1.004 0 0 0-.297.713v6.821c4.967-.467 7.529-2.013 8.643-2.932.224-.184.357-.472.357-.769V19c0-9.142-7.253-16.622-16.308-16.986a11.965 11.965 0 0 1-1.933 3.137C36.255 6.907 33.513 9 29.001 9s-7.254-2.093-8.759-3.849a11.954 11.954 0 0 1-1.933-3.137C9.253 2.378 2 9.858 2 19v5.95c0 .297.133.584.357.769 1.114.919 3.676 2.465 8.643 2.932V21.83c0-.268-.105-.521-.297-.713l-3.41-3.41a.999.999 0 1 1 1.414-1.414zM38 13c2.757 0 5 2.243 5 5s-2.243 5-5 5-5-2.243-5-5 2.243-5 5-5zM40.432 48.019l-4.38-.008a10.985 10.985 0 0 0 4.136 7.609l2.616-3.666z"
  />
  <circle cx="38" cy="18" r="3" />
  <path
    fill-rule="evenodd"
    d="M47 36c-1.856 0-3.604.466-5.139 1.281l2.653 3.717h4.972l2.653-3.717A10.927 10.927 0 0 0 47 36zM13.597 48.411 13 48.096v2.247c4.493 2.322 10.151 3.606 16 3.606 2.246 0 4.487-.199 6.686-.571a12.961 12.961 0 0 1-.867-1.883 38.1 38.1 0 0 1-5.818.454c-5.679 0-11.149-1.257-15.403-3.539zM36.916 55.189A42.053 42.053 0 0 1 29 55.95c-5.774 0-11.387-1.202-16-3.381v.191c0 1.15.66 2.209 1.681 2.698 2.374 1.137 6.784 2.493 14.319 2.493 3.679 0 6.924-.325 9.696-.958a13.138 13.138 0 0 1-1.781-1.803zM36.05 46.012l4.385.008 2.37-3.971-2.618-3.668a10.984 10.984 0 0 0-4.138 7.632zM29 7c3.013 0 5.449-1.06 7.241-3.151.26-.304.478-.603.675-.894C35.196 3.484 32.598 4 29.001 4s-6.194-.516-7.914-1.045c.197.292.414.592.673.894C23.552 5.94 25.988 7 29.001 7z"
  />
</svg>
