<svg
  xmlns="http://www.w3.org/2000/svg"
  viewBox="0 0 32 32"
  width="24"
  height="24"
  fill="currentColor"
>
  <path
    fill-rule="evenodd"
    d="M16.002 30H5a2.996 2.996 0 0 1-2.121-.879A2.996 2.996 0 0 1 2 27V11h6c.796 0 1.559-.316 2.121-.879A2.996 2.996 0 0 0 11 8V2h12a3 3 0 0 1 3 3v7.833A9.954 9.954 0 0 0 22 12a9.948 9.948 0 0 0-4.563 1.101A.985.985 0 0 0 17 13H7a1 1 0 0 0 0 2h7.861a10.035 10.035 0 0 0-2.028 3H7a1 1 0 0 0 0 2h5.2a10.057 10.057 0 0 0-.151 3H7a1 1 0 0 0 0 2h5.459a10.027 10.027 0 0 0 3.543 5zM2.117 9c.139-.484.399-.93.762-1.293l4.828-4.828A2.999 2.999 0 0 1 9 2.117V8a.997.997 0 0 1-1 1zM22 14c4.415 0 8 3.585 8 8s-3.585 8-8 8-8-3.585-8-8 3.585-8 8-8zm0 9.8a.4.4 0 0 1-.347-.201 1 1 0 0 0-1.731 1.002c.248.429.625.773 1.078.981V26a1 1 0 0 0 2 0v-.418a2.4 2.4 0 0 0 1.4-2.182c0-1.186-.682-1.768-1.593-2.157-.309-.132-.649-.235-.946-.378-.121-.058-.261-.101-.261-.265a.4.4 0 0 1 .747-.199 1 1 0 0 0 1.731-1.002A2.406 2.406 0 0 0 23 18.418V18a1 1 0 0 0-2 0v.418a2.4 2.4 0 0 0-1.4 2.182c0 1.186.682 1.768 1.593 2.157.309.132.649.235.946.378.121.058.261.101.261.265a.4.4 0 0 1-.4.4z"
  />
</svg>
