<!-- Generated by IcoMoon.io -->
<svg fill="currentColor" version="1.1" xmlns="http://www.w3.org/2000/svg" width="24" height="24" viewBox="0 0 24 24">
<title>rugby_league</title>
<path d="M11.714 18.581c-4.236-0.814-7.29-3.312-8.968-5.96 2.278-1.231 6.126-1.219 9.999 0.268 3.030 1.163 5.398 2.974 6.666 4.858-2.089 0.85-4.91 1.37-7.697 0.834zM8.18 4.307c5-0.533 8.917 0.955 11.972 4.55 0.493 0.579 0.934 1.22 1.31 1.871-2.283 1.209-6.090 1.201-9.94-0.278-3.235-1.241-5.708-3.221-6.897-5.24 0.953-0.411 2.127-0.751 3.555-0.904zM23.7 16.042c0.978-1.878-0.58-5.587-2.585-7.945-3.344-3.936-7.62-5.564-13.071-4.982-5.591 0.597-7.793 3.864-7.884 4.003l-0.073 0.111-0.018 0.131c-0.221 1.595 0.103 3.14 0.794 4.568 1.939 4.003 6.769 7.092 10.608 7.83 5.427 1.044 11.072-1.495 12.229-3.716z"></path>
</svg>
