<!-- Generated by IcoMoon.io -->
<svg fill="currentColor" version="1.1" xmlns="http://www.w3.org/2000/svg" width="24" height="24" viewBox="0 0 24 24">
<title>rugby_union</title>
<path d="M17.574 16.622c-3.863 3.62-7.618 3.794-8.587 3.517s1.385-1.99 1.385-1.99c7.755-5.506 10.941-11.706 10.941-11.706 0.933-1.701 1.191 5.559-3.739 10.179zM4.912 14.181c0.14-1.265 1.421-5.255 4.152-7.667 5.076-4.486 10.888-2.703 10.888-2.703s0.504 0.093 0.457 0.504c-0.063 0.552-0.426 1.667-1.184 2.915-1.448 2.386-6.878 7.005-10.873 9.063s-3.742 0.6-3.439-2.113zM22.021 3.461c-1.255-1.595-5.514-1.805-8.621-1.012-3.951 1.010-8.389 3.419-10.652 10.105-1.886 5.574 0.389 9.132 0.389 9.132 5.616 3.606 13.903-0.905 17.031-5.171 3.334-4.546 3.406-11.080 1.853-13.055z"></path>
</svg>
