<svg xmlns="http://www.w3.org/2000/svg" width="24" height="24" viewBox="0 0 24 24" fill="currentColor">
<path fill-rule="evenodd" clip-rule="evenodd" d="M22 13.2499V10.7501L19.2987 10.2995C19.1106 9.48794 18.7908 8.7298 18.3622 8.04255L19.9552 5.81351L18.1879 4.04591L15.9575 5.63779C15.2702 5.21051 14.5122 4.88946 13.7004 4.70026L13.2501 2H10.7501L10.2996 4.70022C9.48911 4.88942 8.72981 5.21047 8.04257 5.63775L5.81228 4.04587L4.04472 5.81351L5.63776 8.04255C5.20924 8.72865 4.88942 9.48794 4.70138 10.2995L2 10.7501V13.2499L4.70138 13.7005C4.88942 14.5123 5.20924 15.2704 5.63776 15.9576L4.04472 18.1878L5.81224 19.9553L8.04368 18.3625C8.72981 18.7908 9.48907 19.1107 10.2996 19.2987L10.7501 22H13.2501L13.7004 19.2987C14.5109 19.1107 15.2702 18.7908 15.9576 18.3625L18.1879 19.9553L19.9552 18.1878L18.3622 15.9576C18.7908 15.2704 19.1106 14.5111 19.2987 13.7005L22 13.2499ZM12 16.9999C9.23879 16.9999 7.00005 14.7612 7.00005 12C7.00005 9.23877 9.23879 7.00004 12 7.00004C14.7613 7.00004 17 9.23877 17 12C17 14.7612 14.7614 16.9999 12 16.9999Z" />
</svg>