<?xml version="1.0" encoding="UTF-8"?>
<svg
  version="1.1"
  xmlns="http://www.w3.org/2000/svg"
  width="529"
  height="133"
  viewBox="0 0 529 133"
  fill="currentColor"
>
  <path
    d="M0 0 C4.14430754 4.03502559 7.12355895 7.39566179 7.3125 13.3125 C7.27398147 16.73514671 7.06154761 17.89668795 5.25 20.9375 C1.91899583 23.99092049 0.15691184 24.87145424 -4.375 25.375 C-9.58416383 24.83612098 -12.49480903 22.46218551 -16.1875 18.875 C-21.19737301 15.53508466 -26.88387701 14.51001652 -32.83203125 15.4453125 C-38.62885979 17.05302511 -38.62885979 17.05302511 -43 21 C-43.48582895 24.5230496 -43.48582895 24.5230496 -42 28 C-36.25240489 31.79157315 -29.19389646 33.04817362 -22.5625 34.4375 C-11.68896289 36.88551371 -0.35061414 40.08310384 6.24609375 49.84375 C10.74492629 58.149287 11.98431766 66.75725721 10 76 C7.12304861 84.38284112 1.97255877 91.2313454 -5.8203125 95.5703125 C-17.45118588 100.99805341 -31.05868388 102.21602468 -43.5 98.5 C-52.25229144 95.00643829 -60.16858834 89.49554874 -65.03125 81.296875 C-66.65883105 77.43793284 -67.04632756 74.07074881 -66 70 C-64.25018585 66.94263242 -62.20221993 64.60110997 -59 63 C-54.09491009 62.31328741 -50.92856927 62.37500145 -46.75 65.1875 C-45.00871157 66.96836317 -43.29604012 68.77806092 -41.625 70.625 C-37.36914466 74.47553579 -33.09235422 75.77975219 -27.4375 76.375 C-22.53906226 75.84062497 -18.68463101 74.52669685 -15 71.1875 C-13.83252818 68.94151751 -13.83252818 68.94151751 -13.6875 66 C-15.19621455 62.55150961 -15.68111556 62.31111013 -19 60.875 C-24.42319261 58.98698309 -30.0006809 57.81795565 -35.59521484 56.56542969 C-46.79916212 53.98621095 -55.78985255 50.22323168 -63.25 41.3125 C-67.72303262 32.84568825 -69.26397561 24.21987149 -66.75 14.9375 C-63.86491801 6.13600562 -58.3254265 -0.09861217 -50.2109375 -4.51953125 C-33.66638026 -12.25667594 -14.77295413 -10.98436521 0 0 Z "
    transform="translate(114,25)"
  />
  <path
    d="M0 0 C6.12198009 5.20875654 9.91619238 13.08798545 11.0625 21 C11.88818212 31.94028815 10.62116575 42.78164682 3.95703125 51.796875 C-4.519389 61.65399051 -14.98059547 68.24345629 -25.9375 75 C-24.96401611 75.0093457 -23.99053223 75.01869141 -22.98754883 75.02832031 C-19.3622528 75.06831092 -15.73779737 75.13409325 -12.11303711 75.20751953 C-10.54674103 75.23567694 -8.98030425 75.25691753 -7.41381836 75.27099609 C-5.15665934 75.29249967 -2.90118261 75.33918189 -0.64453125 75.390625 C0.39951118 75.39246796 0.39951118 75.39246796 1.46464539 75.39434814 C6.25047029 75.53726633 8.67915999 76.641043 12.0625 80 C14.49438918 83.65507153 14.31678899 86.57782029 13.73828125 90.80859375 C12.55296551 94.65230548 10.42666087 95.88915397 7.0625 98 C4.07402235 98.97098942 1.33714298 99.131112 -1.79443359 99.14526367 C-2.75578217 99.15164352 -3.71713074 99.15802338 -4.70761108 99.16459656 C-5.7399588 99.16570938 -6.77230652 99.1668222 -7.8359375 99.16796875 C-9.43751205 99.17296135 -9.43751205 99.17296135 -11.07144165 99.17805481 C-13.32919891 99.18311529 -15.58696364 99.18546341 -17.84472656 99.18530273 C-21.2924436 99.18748729 -24.73983964 99.20564724 -28.1875 99.22460938 C-30.38281141 99.22754388 -32.57812433 99.22952829 -34.7734375 99.23046875 C-36.31588638 99.24124702 -36.31588638 99.24124702 -37.88949585 99.25224304 C-44.04790245 99.23266253 -49.32343103 99.19016589 -54.25 95.0625 C-57.49189829 91.10017986 -57.26075044 86.88278294 -56.9375 82 C-55.60207452 71.04951104 -49.53175364 62.7294404 -40.9375 56 C-36.52956824 52.92507914 -32.0299059 49.99088819 -27.4765625 47.13623047 C-21.29921825 43.19648263 -15.33898847 39.20446542 -12.9375 32 C-12.82062662 30.52413385 -12.76248258 29.04293388 -12.75 27.5625 C-12.73582031 26.80066406 -12.72164063 26.03882813 -12.70703125 25.25390625 C-12.97158513 22.66665896 -13.48506102 21.15804025 -14.9375 19 C-18.55003808 16.56629014 -21.45553366 16.76504532 -25.63671875 17.3125 C-28.95226547 18.30322364 -30.80029677 20.26772161 -33.25390625 22.625 C-36.01111689 24.87682864 -38.45941241 25 -41.9375 25 C-45.64153434 24.27371876 -47.49939943 23.39198472 -50.3125 20.875 C-52.40084262 17.18023998 -52.71538056 14.10007878 -51.9375 10 C-48.71701608 3.42484532 -42.65225655 -2.18888871 -35.8125 -4.875 C-23.46521848 -8.7905776 -10.81941481 -7.47489976 0 0 Z "
    transform="translate(469.9375,27)"
  />
  <path
    d="M0 0 C11.66582784 6.36830216 18.51178289 15.69949211 22.42578125 28.32421875 C23.27465752 33.09268895 22.946294 36.86463635 20.73828125 41.19921875 C17.25998058 45.89962506 14.09481815 47.47336271 8.42578125 48.32421875 C5.41845514 48.45523796 2.41592964 48.44065218 -0.59375 48.421875 C-1.88160652 48.41975258 -1.88160652 48.41975258 -3.19548035 48.41758728 C-5.92592924 48.41200932 -8.65629482 48.39946089 -11.38671875 48.38671875 C-13.24283735 48.3817009 -15.09895725 48.37713849 -16.95507812 48.37304688 C-21.49482355 48.36204711 -26.03450705 48.34479768 -30.57421875 48.32421875 C-27.261459 52.71722625 -24.94081737 54.71423916 -19.57421875 56.32421875 C-16.05561065 56.37025661 -12.79335607 55.97574153 -9.64453125 54.29296875 C-5.81923379 52.50301824 -1.7024653 52.88931433 2.42578125 53.32421875 C6.35949076 54.96326438 7.82214404 56.45457244 9.42578125 60.32421875 C10.08290397 64.59551644 9.99460362 68.186574 8.05078125 72.07421875 C-1.51032106 80.2694493 -12.27035382 81.13507007 -24.34765625 80.53759766 C-34.3239277 79.58153831 -42.0738892 73.56611887 -48.57421875 66.32421875 C-54.87521996 58.31808402 -58.37497285 47.73286221 -57.85546875 37.47265625 C-56.00875165 23.36578954 -50.92421961 12.27359734 -39.57421875 3.32421875 C-27.5138216 -3.44058233 -13.00834933 -5.62576564 0 0 Z M-28.51171875 25.88671875 C-30.78953283 28.04651252 -30.78953283 28.04651252 -30.57421875 30.32421875 C-21.33421875 30.32421875 -12.09421875 30.32421875 -2.57421875 30.32421875 C-6.02456005 24.57364992 -8.54714328 22.14978479 -15.01171875 20.38671875 C-20.74201518 20.28618723 -24.24427257 22.16405293 -28.51171875 25.88671875 Z "
    transform="translate(309.57421875,44.67578125)"
  />
  <path
    d="M0 0 C0.33 15.51 0.66 31.02 1 47 C7.07835844 40.84267296 7.07835844 40.84267296 13.14550781 34.67431641 C14.28777832 33.52455322 14.28777832 33.52455322 15.453125 32.3515625 C16.61569824 31.17327881 16.61569824 31.17327881 17.80175781 29.97119141 C21.71105586 26.4656747 24.70183448 25.55255973 30.03125 25.671875 C33.14316604 26.19052767 34.85067869 27.78554774 37 30 C38.78647864 33.57295729 38.71802861 37.11382762 38 41 C36.1927237 44.17262738 33.61769008 46.48093561 31 49 C29.80351338 50.20196724 28.609733 51.40663157 27.41796875 52.61328125 C23.96755877 56.09839741 20.48950765 59.5540507 17 63 C19.87680558 68.993731 24.75734957 72.96618266 29.75 77.25 C33.28841604 80.30179694 36.62864047 83.51652376 39.9375 86.8125 C40.42250977 87.29299805 40.90751953 87.77349609 41.40722656 88.26855469 C44.99126162 91.86791705 46.17791944 93.75662571 46.375 98.8125 C46.33025333 102.68308711 46.16145817 103.76731029 43.875 107.0625 C40.6247666 109.25287468 38.91718166 110 35 110 C28.23905882 107.89918967 24.36615834 103.80875811 19.5625 98.75 C14.74923347 93.75814168 9.92376333 88.92130702 4.64428711 84.41894531 C3.38324697 83.33072478 2.17780435 82.17780435 1 81 C0.67 90.57 0.34 100.14 0 110 C-15.13765398 107.24769928 -15.13765398 107.24769928 -20.42564392 100.06300354 C-24.96857759 92.03741597 -24.71216339 84.08507666 -24.62890625 75.15234375 C-24.62973671 73.52909689 -24.63220274 71.90585014 -24.63621521 70.28260803 C-24.63905945 66.89607144 -24.62450647 63.51020125 -24.59692383 60.1237793 C-24.56281544 55.80423142 -24.56888119 51.48587152 -24.5875864 47.16626644 C-24.59820274 43.81940475 -24.58917727 40.47281494 -24.57420158 37.12597847 C-24.56905506 35.53413261 -24.56945822 33.94225794 -24.57574654 32.35041618 C-24.59941088 22.7643576 -24.44296455 14.38731936 -18.0703125 6.66015625 C-11.95275977 1.6359011 -8.13465434 0 0 0 Z "
    transform="translate(361,16)"
  />
  <path
    d="M0 0 C0 0.99 0 1.98 0 3 C1.051875 2.5359375 1.051875 2.5359375 2.125 2.0625 C12.29200879 -1.69487281 24.00675972 -0.93009011 34 3 C45.40730116 8.81772359 53.17585819 16.25858534 57.875 28.375 C59.3007004 32.96892352 60.12649047 37.07203469 60.11352539 41.88208008 C60.11341209 43.29297661 60.11341209 43.29297661 60.11329651 44.7323761 C60.10813522 45.7346373 60.10297394 46.7368985 60.09765625 47.76953125 C60.0962413 48.80567062 60.09482635 49.84181 60.09336853 50.90934753 C60.08778242 54.21042804 60.07523242 57.51144008 60.0625 60.8125 C60.05748321 63.05403548 60.05292061 65.29557202 60.04882812 67.53710938 C60.03781753 73.02476284 60.02109318 78.51237653 60 84 C58.40112843 83.70974157 56.80374573 83.4112742 55.20703125 83.109375 C54.31733643 82.94405273 53.4276416 82.77873047 52.51098633 82.60839844 C46.27925422 81.09848337 42.68355369 76.91140492 39 72 C37.13061013 68.87904872 36.73271911 66.51659595 36.65625 62.89453125 C36.62660156 61.91033203 36.59695312 60.92613281 36.56640625 59.91210938 C36.54449219 58.88923828 36.52257812 57.86636719 36.5 56.8125 C36.27798496 43.24027337 36.27798496 43.24027337 31 31 C31 30.34 31 29.68 31 29 C29.67661368 28.31379969 28.34050052 27.65213539 27 27 C26.278125 26.62875 25.55625 26.2575 24.8125 25.875 C18.31976643 23.85503844 12.26436373 24.92446751 5.84765625 26.7578125 C2.96604559 28.69513214 2.84176589 30.6320335 2 34 C1.67331698 37.83930149 1.62780327 41.67174972 1.5859375 45.5234375 C1.56657135 46.62475006 1.5472052 47.72606262 1.5272522 48.86074829 C1.46765072 52.36542099 1.42114838 55.87012688 1.375 59.375 C1.33680238 61.75652445 1.29774961 64.13803534 1.2578125 66.51953125 C1.16196512 72.34623354 1.07686099 78.17301799 1 84 C-0.77333903 83.71006762 -2.54520961 83.41114348 -4.31640625 83.10839844 C-5.30326416 82.9428949 -6.29012207 82.77739136 -7.30688477 82.60687256 C-12.51894848 81.43237456 -15.60434071 77.92257194 -19 74 C-21.95361725 69.20037197 -23.10842936 64.94452212 -23.17700195 59.35839844 C-23.19625481 57.98612091 -23.19625481 57.98612091 -23.21589661 56.58612061 C-23.22328354 55.60379456 -23.23067047 54.62146851 -23.23828125 53.609375 C-23.246353 52.59079407 -23.25442474 51.57221313 -23.26274109 50.52276611 C-23.27656226 48.36757093 -23.28729319 46.21235403 -23.29516602 44.05712891 C-23.30668481 41.85947226 -23.32713489 39.66184357 -23.35668945 37.46435547 C-23.39946951 34.28333585 -23.41555011 31.10314698 -23.42578125 27.921875 C-23.44328934 26.94764587 -23.46079742 25.97341675 -23.47883606 24.96966553 C-23.45574439 17.6491705 -21.90349371 12.31333079 -17.03515625 6.7578125 C-11.34688205 2.04949841 -7.60477484 -0.35371046 0 0 Z "
    transform="translate(187,42)"
  />
  <path
    d="M0 0 C0.11617354 8.72782073 0.20485587 17.45537274 0.25906086 26.18379974 C0.28508507 30.23739557 0.3203496 34.29045997 0.37719727 38.34375 C0.43177649 42.26008784 0.46147445 46.17591659 0.47438622 50.09260559 C0.48358 51.58209745 0.50153338 53.07156342 0.52865028 54.56083679 C0.79383966 69.7374503 0.79383966 69.7374503 -5 76 C-9.36636148 80.44373114 -13.35179308 82.96891112 -19.66015625 83.04296875 C-20.76230469 83.02878906 -21.86445313 83.01460938 -23 83 C-23.09295482 74.53289091 -23.16389321 66.06599742 -23.20724869 57.59850311 C-23.22806427 53.66607045 -23.25627007 49.73398861 -23.30175781 45.80175781 C-23.345433 42.00214726 -23.36918239 38.20287273 -23.37950897 34.4030304 C-23.38686174 32.95822363 -23.40121968 31.51343386 -23.42292023 30.06877136 C-23.56121952 20.47441908 -23.02496757 13.91940481 -16.75 6.25 C-11.27342787 1.76916826 -7.09983041 -0.10829737 0 0 Z "
    transform="translate(157,42)"
  />
  <path
    d="M0 0 C0.33 0.99 0.66 1.98 1 3 C0.01 3.8971875 0.01 3.8971875 -1 4.8125 C-3.3373846 6.87501834 -3.3373846 6.87501834 -3 10 C-1.68 10 -0.36 10 1 10 C1.33 8.02 1.66 6.04 2 4 C2.66 4 3.32 4 4 4 C3.4140625 10.15234375 3.4140625 10.15234375 3 12 C2.01 12.495 2.01 12.495 1 13 C1.5053125 13.51949219 2.010625 14.03898437 2.53125 14.57421875 C3.1809375 15.27160156 3.830625 15.96898437 4.5 16.6875 C5.1496875 17.37199219 5.799375 18.05648438 6.46875 18.76171875 C8.28777755 21.42065443 8.38737548 22.84181382 8 26 C7.505 26.495 7.505 26.495 7 27 C4.96960598 26.96777152 2.93871908 26.93188381 0.91015625 26.83984375 C-1.24385229 26.81348256 -1.24385229 26.81348256 -3 29 C-3.804375 29.144375 -4.60875 29.28875 -5.4375 29.4375 C-8.04978821 29.76197181 -8.04978821 29.76197181 -9.5 31.5625 C-11 33 -11 33 -13.6875 33.1875 C-14.8321875 33.0946875 -14.8321875 33.0946875 -16 33 C-17.30459914 30.39080172 -17.1326594 28.41057385 -17.125 25.5 C-17.12757813 24.5203125 -17.13015625 23.540625 -17.1328125 22.53125 C-17 20 -17 20 -16 18 C-16.556875 18.2475 -17.11375 18.495 -17.6875 18.75 C-20 19 -20 19 -22.75 17.1875 C-23.86375 16.1046875 -23.86375 16.1046875 -25 15 C-25 14.34 -25 13.68 -25 13 C-24.1646875 13.2165625 -24.1646875 13.2165625 -23.3125 13.4375 C-20.88615805 14.02769128 -18.45093655 14.523429 -16 15 C-15.67 14.01 -15.34 13.02 -15 12 C-17.97 11.67 -20.94 11.34 -24 11 C-24 10.01 -24 9.02 -24 8 C-21.36 8.33 -18.72 8.66 -16 9 C-15.67 6.69 -15.34 4.38 -15 2 C-13.35 1.67 -11.7 1.34 -10 1 C-10 1.99 -10 2.98 -10 4 C-5.17805357 3.67495741 -5.17805357 3.67495741 -1.0625 1.4375 C-0.5365625 0.7259375 -0.5365625 0.7259375 0 0 Z "
    transform="translate(150,12)"
  />
</svg>
