<!-- Generated by IcoMoon.io -->
<svg
  version="1.1"
  xmlns="http://www.w3.org/2000/svg"
  fill="currentColor"
  width="24"
  height="24"
  viewBox="0 0 496.55 496.55"
>
  <title>kayak</title>
  <path
    d="M465.706 138.658c23.714-11.637 33.517-40.281 21.881-63.985-11.608-23.724-40.261-33.518-63.976-21.891-23.704 11.618-33.5 40.264-21.881 63.968 11.619 23.714 40.262 33.517 63.976 21.908zM335.949 200.295c-3.816 18.598-2.142 35.249 16.388 40.348l85.277 23.423.048.01c13.845 3.79 28.017-4.359 31.786-18.092 3.771-13.752-4.293-27.971-18.045-31.768-.017-.01-.027-.01-.046-.02l-43.471-11.938-17.185-11.468c5.202-25.304 3.35-16.323 7.98-38.823 2.441-11.851-6.643-27.005-11.965-37.875-10.019-20.421-34.678-28.86-55.089-18.85l-28.549 13.996 45.537 30.411c-1.047 3.611-3.517 16.108-4.339 20.132L143.168 25.515c-8.774-5.895-20.683-3.518-26.566 5.293-5.876 8.793-3.508 20.693 5.293 26.567l214.054 142.92z"
  ></path>
  <path
    d="M493.827 424.91c-5.416-9.073-17.157-12.02-26.278-6.594l-26.379 15.781-174.501-60.056 82.283-69.319c15.64-13.161 14.836-37.625-1.749-49.719l-46.043-33.556 16.53-8.1 1.908-.937-96.1-64.163-.019.009c-16.044 7.867-26.25 22.78-28.926 39.167-3.32 20.226 5.136 37.822 24.256 52.237l58.571 42.685-79.748 67.934-172.23-59.28c-10.028-3.471-20.917 1.86-24.351 11.871-3.452 10.01 1.871 20.908 11.871 24.359l424.195 145.998a19.123 19.123 0 0 0 16.083-1.675l34.032-20.365c9.074-5.426 12.03-17.194 6.595-26.277z"
  ></path>
</svg>
