<svg fill="currentColor" xmlns="http://www.w3.org/2000/svg" xmlns:xlink="http://www.w3.org/1999/xlink" width="24" height="24" viewBox="0 0 24 24">
    <path id="snooker-a" d="M1.8383036,18.3053669 C1.81747096,18.3475362 1.79428626,18.3927296 1.76992552,18.4407791 C1.56596731,18.8406312 1.2867428,19.3881599 1.35478488,20.0101148 C1.40653045,20.4827132 1.50262938,21.3622199 3.8582291,21.3622199 L20.1416209,21.3622199 C22.4973886,21.3622199 22.5934876,20.4827132 22.6452331,20.0102828 C22.7132752,19.3878239 22.4338827,18.8402952 22.2297564,18.440443 C22.2053958,18.3925615 22.182379,18.3475362 22.1615464,18.3053669 L13.3631185,3.05386253 C13.0543251,2.61116906 12.5516538,2.34672901 12.0126934,2.34404093 L11.9879966,2.34404093 C11.4485322,2.346561 10.9456929,2.61100105 10.6370675,3.05386253 L1.8383036,18.3053669 Z M20.1416209,22.7062609 L3.8582291,22.7062609 C2.97754629,22.7062609 0.297696693,22.7062609 0.0186401968,20.1566153 C-0.0930832049,19.1351442 0.323569481,18.3181353 0.572721067,17.8300804 C0.597753829,17.780687 0.621274546,17.7348215 0.642107179,17.6924843 L0.663275824,17.652499 L9.49816082,2.33832875 L9.51176923,2.31816814 C10.0712262,1.492759 10.9996225,1 11.9957248,1 L12.0054692,1 C13.0007314,1.00033602 13.9287917,1.49309502 14.4880807,2.31800013 L14.5139536,2.35932939 L23.3577428,17.6923162 C23.3784075,17.7346536 23.4019282,17.7803509 23.4269609,17.8294084 C23.6759445,18.3176313 24.0931012,19.1348081 23.9813778,20.1566153 C23.7023213,22.7062609 21.0224717,22.7062609 20.1416209,22.7062609 Z M14.6307843,7.25656089 C14.6307843,5.81709307 13.4638207,4.65012954 12.0243529,4.65012954 C10.5848851,4.65012954 9.41792158,5.81709307 9.41792158,7.25656089 C9.41792158,8.69602873 10.5848851,9.86299225 12.0243529,9.86299225 C13.4638207,9.86299225 14.6307843,8.69602873 14.6307843,7.25656089 Z M11.7185668,12.6750618 C11.7185668,11.235594 10.5516033,10.0686305 9.11213547,10.0686305 C7.67266764,10.0686305 6.5057041,11.235594 6.5057041,12.6750618 C6.5057041,14.1145297 7.67266764,15.2814932 9.11213547,15.2814932 C10.5516033,15.2814932 11.7185668,14.1145297 11.7185668,12.6750618 Z M17.5430017,12.6750618 C17.5430017,11.235594 16.3760382,10.0686305 14.9365704,10.0686305 C13.4971026,10.0686305 12.330139,11.235594 12.330139,12.6750618 C12.330139,14.1145297 13.4971026,15.2814932 14.9365704,15.2814932 C16.3760382,15.2814932 17.5430017,14.1145297 17.5430017,12.6750618 Z M8.66267138,17.8879245 C8.66267138,16.4484567 7.49570785,15.2814932 6.05624003,15.2814932 C4.61677219,15.2814932 3.44980866,16.4484567 3.44980866,17.8879245 C3.44980866,19.3273925 4.61677219,20.494356 6.05624003,20.494356 C7.49570785,20.494356 8.66267138,19.3273925 8.66267138,17.8879245 Z M14.6307843,17.8879245 C14.6307843,16.4484567 13.4638207,15.2814932 12.0243529,15.2814932 C10.5848851,15.2814932 9.41792158,16.4484567 9.41792158,17.8879245 C9.41792158,19.3273925 10.5848851,20.494356 12.0243529,20.494356 C13.4638207,20.494356 14.6307843,19.3273925 14.6307843,17.8879245 Z M20.5988972,17.8879245 C20.5988972,16.4484567 19.4319337,15.2814932 17.9924658,15.2814932 C16.552998,15.2814932 15.3860345,16.4484567 15.3860345,17.8879245 C15.3860345,19.3273925 16.552998,20.494356 17.9924658,20.494356 C19.4319337,20.494356 20.5988972,19.3273925 20.5988972,17.8879245 Z"/>
</svg>
