<svg fill="currentColor" xmlns="http://www.w3.org/2000/svg" xmlns:xlink="http://www.w3.org/1999/xlink" version="1.1" id="Layer_1" x="0px" y="0px" viewBox="0 0 24 24" style="enable-background:new 0 0 24 24;" xml:space="preserve">
<g id="_x33_8">
	<path d="M7.3,22.3c1.9,0,3.4-1.5,3.4-3.4c0-1.9-1.5-3.4-3.4-3.4c-1.9,0-3.4,1.5-3.4,3.4C3.9,20.8,5.4,22.3,7.3,22.3z M7.3,16.4   c1.4,0,2.5,1.1,2.5,2.5c0,1.4-1.1,2.5-2.5,2.5c-1.4,0-2.5-1.1-2.5-2.5C4.8,17.5,5.9,16.4,7.3,16.4z"/>
	<path d="M22.5,20L19,16.6c-0.1-0.1-0.4-0.2-0.5-0.1l-2.1-2.1c-1.8-5.6-0.8-8.1-3.8-11.1c-3-3-7.5-3.1-9.9-0.7c0,0,0,0,0,0   c0,0,0,0,0,0c0,0,0,0,0,0C0,5.3,0.6,9.8,3.4,12.5c0,0,0,0,0,0c0,0,0,0,0,0c2.5,2.5,3.9,1.9,11,3.9l2.1,2.1   c-0.1,0.2-0.1,0.4,0.1,0.5l3.5,3.5c0.7,0.7,1.8,0.7,2.5,0C23.2,21.8,23.2,20.7,22.5,20z M15.4,14.5l-1,1c-1.1-0.3-2.2-0.6-3.5-0.9   c0.9-0.3,1.7-0.7,2.3-1.4c0,0,0,0,0,0c0,0,0,0,0,0c0,0,0,0,0,0c0.6-0.6,1-1.3,1.3-2.1C14.8,12.3,15.1,13.4,15.4,14.5z M6.9,13.6   L8,12.6L9.4,14C8.5,14,7.7,13.9,6.9,13.6z M4.4,12.2L6,10.6l1.3,1.3L6,13.3C5.4,13,4.9,12.6,4.4,12.2z M2.6,9.9L4,8.6l1.3,1.3   l-1.6,1.6C3.3,11,2.9,10.5,2.6,9.9z M1.9,6.5l1.4,1.4L2.2,9C1.9,8.1,1.9,7.3,1.9,6.5z M3,3.7l2.3,2.3L4,7.3L2.1,5.4   C2.3,4.8,2.6,4.2,3,3.7z M5.5,2.1L7.3,4L6,5.3L3.7,3C4.2,2.6,4.8,2.3,5.5,2.1z M11.6,3.7L10,5.3L8.6,4L10,2.6   C10.6,2.9,11.1,3.2,11.6,3.7z M13.3,5.9L12,7.3l-1.3-1.3l1.6-1.6C12.7,4.8,13.1,5.4,13.3,5.9z M10.5,13.8l-1.9-1.9l1.3-1.3l2.3,2.3   C11.8,13.3,11.2,13.6,10.5,13.8z M8,8.6l1.3,1.3L8,11.3L6.6,9.9L8,8.6z M6,9.3L4.7,7.9L6,6.6l1.3,1.3L6,9.3z M8.6,7.9L10,6.6   l1.3,1.3L10,9.3L8.6,7.9z M12.9,12.2l-2.3-2.3L12,8.6l1.9,1.9C13.7,11.1,13.4,11.7,12.9,12.2z M14.1,9.3l-1.4-1.4l1.1-1.1   C14,7.6,14.1,8.5,14.1,9.3z M9.3,5.9L8,7.3L6.6,5.9L8,4.6L9.3,5.9z M9.1,2.2L8,3.3L6.6,1.9C7.4,1.8,8.2,1.9,9.1,2.2z M16,15.3   l1.8,1.8l-0.7,0.7L15.2,16L16,15.3z M21.9,21.9c-0.3,0.3-0.9,0.3-1.2,0l-3.2-3.1l1.2-1.2l3.2,3.1C22.2,21,22.2,21.6,21.9,21.9z"/>
</g>
</svg>