<?xml version="1.0" encoding="UTF-8"?>
<svg fill="currentColor" id="surfing" xmlns="http://www.w3.org/2000/svg" viewBox="0 0 24 24">
  <path d="m6.5999,15.0699c-.54-.34-.9499-.83-1.18-1.4l-.57,1.29h-1.8499c-.55,0-1,.44-1,.99,0,.56.45,1,1,1h2.1699c.59,0,1.13-.35,1.37-.89l.36-.8-.3-.19Zm3.8899-11.0698c-.83,0-1.5.67-1.5,1.49,0,.83.67,1.5,1.5,1.5s1.5-.67,1.5-1.5c0-.82-.67-1.49-1.5-1.49Zm9.8698,9.0498c-1.8599,4.3799-4.5399,7.4599-5.9798,6.8799-1.23-.49-1.17-3.4799.01-7.0499-.12.06-.26.09-.4.09h-.67c-1.21,0-2.2999-.73-2.77-1.8399l-.16-.39-.96,2.57,1.77,1.1c.57.35.83,1.04.6499,1.68l-.8999,3.1299c-.15.53-.7.83-1.23.68-.53-.15-.8399-.7-.6899-1.23l.79-2.7699-2.6899-1.67c-.78-.49-1.13-1.4499-.83-2.32l.97-2.9199c-.06-.01-.12-.01-.18-.01-.44,0-.86.18-1.17.48l.01.0099-.72.72c-.39.38-1.03.38-1.42,0-.3899-.39-.3899-1.03,0-1.4099l.73-.72c.68-.69,1.6099-1.07,2.5799-1.07.36,0,.72.05,1.07.16l1.52.47c1.14.35,2.0599,1.18,2.5099,2.27l.2.47c.15.37.5199.61.92.61h.67c.39,0,.73.23.9.56.07-.19.15-.39.23-.58,1.8599-4.3799,4.5399-7.4599,5.9798-6.8799,1.45.58,1.11,4.5999-.74,8.9798Z" />
</svg>