<svg fill="currentColor" xmlns="http://www.w3.org/2000/svg" viewBox="0 0 24 24" width="24" height="24">
  <path fill-rule="evenodd" d="M19.2810281,10.762478 C19.1506759,11.7760408 18.7292707,12.7590803 18.10517,13.6609291 C18.3732572,14.2380335 18.6682921,14.6840049 18.9892511,14.9991288 C19.5443819,15.5441675 20.6581169,16.2787433 22.003914,17.3355522 C23.349711,18.3923611 23.1810895,19.6086477 22.3873681,20.3879394 C21.5936466,21.1672311 20.3246327,21.3624174 19.2784478,20.0114433 C18.232263,18.6604691 17.5399239,17.6810921 16.8987621,17.0515866 C16.5900011,16.7484388 16.1223606,16.4540057 15.4958408,16.1682873 C14.6408248,16.6983303 13.7104983,17.043983 12.7465873,17.1778851 L19.2810281,10.762478 Z M2.78448181,15.6147426 C3.7700239,15.6147426 4.56896361,16.399164 4.56896361,17.3667967 C4.56896361,18.3344294 3.7700239,19.1188507 2.78448181,19.1188507 C1.79893972,19.1188507 1,18.3344294 1,17.3667967 C1,16.399164 1.79893972,15.6147426 2.78448181,15.6147426 Z M16.4156642,4.27504793 C17.8658679,5.69888708 19.0424756,7.59784593 19.2802327,9.4345714 L19.3073053,9.69614031 L11.6275394,17.2369476 C9.67293426,17.1723503 7.70254526,16.1991807 6.16635678,14.7784654 L5.93870728,14.5615349 C2.88484113,11.5631876 2.88483763,7.22143007 5.93869894,4.22308762 C8.99256025,1.22474518 13.3617981,1.27670064 16.4156642,4.27504793 Z"/>
</svg>
