<!-- Generated by IcoMoon.io -->
<svg fill="currentColor" version="1.1" xmlns="http://www.w3.org/2000/svg" width="24" height="24" viewBox="0 0 24 24">
<title>tennis</title>
<path d="M4.38 4.75c-4.111 4.277-3.977 11.080 0.3 15.194 4.277 4.111 11.080 3.977 15.194-0.3 2.115-2.201 3.107-5.069 2.99-7.895-1.002 0.564-1.908 1.26-2.704 2.084-0.452 0.467-0.855 0.97-1.282 1.505-0.42 0.525-0.852 1.065-1.339 1.571-1.326 1.38-3.11 2.159-5.025 2.198-0.049 0-0.098 0.002-0.147 0.002-1.859 0-3.618-0.706-4.961-1.998-1.38-1.326-2.159-3.11-2.198-5.025-0.039-1.913 0.672-3.728 1.998-5.108 0.484-0.503 1.009-0.96 1.517-1.4 0.515-0.447 1.004-0.87 1.453-1.341 0.789-0.828 1.451-1.761 1.974-2.785-2.831-0.007-5.657 1.097-7.77 3.298v0z"></path>
<path d="M9.602 6.59c-0.506 0.44-0.984 0.855-1.429 1.314-1.077 1.121-1.654 2.594-1.624 4.15 0.032 1.554 0.664 3.005 1.786 4.082s2.594 1.654 4.15 1.624c1.554-0.032 3.005-0.664 4.082-1.786 0.442-0.459 0.838-0.955 1.258-1.478 0.427-0.535 0.87-1.087 1.365-1.6 1.016-1.050 2.198-1.92 3.51-2.587-0.384-2.159-1.429-4.221-3.132-5.858-1.7-1.639-3.801-2.604-5.975-2.902-0.616 1.339-1.436 2.553-2.445 3.61-0.493 0.515-1.028 0.98-1.546 1.429v0z"></path>
</svg>
