<svg
  xmlns="http://www.w3.org/2000/svg"
  viewBox="0 0 100 100"
  width="24"
  height="24"
  fill="currentColor"
>
  <path d="m97.5 65.328-11.367 21.37s-2.463 4.244-12.694 4.85l-11.746.303v4.736l-6.252-8.146-6.252-8.298 12.504-16.596v6.859h21.75c0-.001 9.814.833 14.057-5.078zM87.23 40.949l-14.127 8.188a2.577 2.577 0 0 0-.931 3.532l8.126 13.87c9.472.872 12.352-2.045 12.352-2.045 7.578-4.282 3.372-13.792 3.372-13.792l-5.288-8.845a2.577 2.577 0 0 0-3.504-.908zM15.354 84.613c-2.88-6.707 2.918-14.664 2.918-14.664L29.64 51.344l5.834 3.562-7.578-19.325L7.21 37.703l4.054 2.462-5.76 10.005C.728 59.264 3.078 63.545 3.078 63.545zm3.221-3.297c-.266 8.715 10.041 10.003 10.041 10.003l10.23.182a2.577 2.577 0 0 0 2.622-2.532l.288-16.3a2.577 2.577 0 0 0-2.524-2.621l-15.997-.327c-5.607 7.617-4.622 11.633-4.622 11.633zm46.378-43.802 10.269 1.554 8.638-18.87-4.168 2.236-5.91-10.155c-5.419-8.715-10.307-8.866-10.307-8.866H39.188c7.237.909 11.367 9.928 11.367 9.928l10.344 19.134-6.025 3.26zm-16.9-20.31c-3.788-8.752-7.577-9.927-7.577-9.927-7.351-4.623-13.717 3.6-13.717 3.6L21.36 19.64a2.577 2.577 0 0 0 .835 3.541l13.91 8.64a2.577 2.577 0 0 0 3.562-.848z"/>
</svg>
