<!-- Generated by IcoMoon.io -->
<svg
  version="1.1"
  xmlns="http://www.w3.org/2000/svg"
  fill="currentColor"
  width="24"
  height="24"
  viewBox="0 0 94 32"
>
  <title>ufc</title>
  <path
    d="M0 27.4l1.8-6.8L7.2.6V.5h12L18.5 3 13 21.4a3 3 0 000 1.4c.1 1 1 1.6 2.2 1.5a4 4 0 003.4-2.8l2.3-7.9L24.8.7V.4h10.7l-1.1 4.2-6 22.6a6.2 6.2 0 01-6 4.6h-18a6 6 0 01-2-.4C1 31 .4 30.2 0 28.9l-.1-.3zM65.6 32l-1-.2a3.7 3.7 0 01-2.7-4.7c1-4.4 2.3-8.7 3.4-13l2.6-10c.6-2.4 2.7-4 5.1-4h15.4c1.6 0 3 .5 4.2 1.4 1.4 1 1.7 2.1 1.3 3.8-.2.7-.2.7-1 .7H80c-1 0-1.7.5-2 1.5L73.7 23c-.3.9.1 1.4 1 1.4h14l-.9 3a5.8 5.8 0 01-5.1 4.7zM64.7 0l-1.3 4.5-.9 2.9c0 .2-.1.3-.3.3a1 1 0 00-.2 0H38.5L40.8 0zM31.6 31.8l.8-2.8 4.8-16.6c0-.3.2-.4.5-.4h23.5l-.1.4-2 6.5c0 .3-.2.4-.5.4H47c-.3 0-.5 0-.6.5l-3.2 11.7c0 .2-.1.3-.4.3h-11-.3z"
  ></path>
</svg>
