<!-- Generated by IcoMoon.io -->
<svg fill="currentColor" version="1.1" xmlns="http://www.w3.org/2000/svg" width="24" height="24" viewBox="0 0 24 24">
<title>volleyball</title>
<path d="M19.837 16.358c-1.045-5.546-5.323-7.742-6.837-8.351-0.632 1.449-0.662 2.79-0.641 3.344 3.647 2.44 4.798 5.502 5.103 7.743-0.388 0.303-0.798 0.582-1.233 0.822-0.061-1.073-0.342-2.485-1.197-3.948-0.954 0.72-2.957 1.965-5.894 2.374-0.519 0.073-1.028 0.104-1.523 0.104-0.97 0-1.882-0.124-2.708-0.309-0.513-0.542-0.962-1.144-1.334-1.796 1.377 0.506 3.305 0.964 5.379 0.675 2.695-0.376 4.52-1.541 5.32-2.151-0.64-0.807-1.483-1.604-2.583-2.35-0.684 0.402-2.188 1.147-4.304 1.391-0.328 0.038-0.649 0.055-0.965 0.055-1.53 0-2.893-0.412-3.972-0.898-0.065-0.443-0.109-0.891-0.109-1.352 0-0.066 0.009-0.13 0.010-0.196 0.957 0.512 2.287 1.036 3.799 1.095-1.070-4.294 0.349-7.465 2.117-9.606 0.761-0.301 1.569-0.511 2.411-0.604-2.074 1.781-4.527 5.076-3.159 10.132 1.724-0.248 2.963-0.862 3.501-1.176-0.026-0.869 0.068-2.906 1.27-4.884 0.93-1.529 2.176-2.592 3.262-3.302 0.474 0.214 0.931 0.462 1.359 0.749-0.985 0.556-2.29 1.49-3.259 2.919 1.657 0.724 5.453 2.849 7.043 7.526-0.209 0.703-0.498 1.369-0.856 1.992zM18.283 3.272c-0.421-0.329-0.864-0.628-1.331-0.892-1.31-0.738-2.788-1.207-4.364-1.335-0.291-0.024-0.582-0.045-0.878-0.045-0.527 0-1.041 0.052-1.548 0.125-4.842 0.705-8.644 4.651-9.111 9.565-0.033 0.336-0.053 0.675-0.053 1.021 0 0.2 0.019 0.396 0.031 0.594 0.061 1.113 0.292 2.18 0.669 3.179 0.26 0.688 0.586 1.342 0.977 1.954 1.902 2.99 5.236 4.983 9.035 4.983 1.595 0 3.106-0.36 4.468-0.989 0.478-0.221 0.939-0.472 1.377-0.758 0.949-0.622 1.793-1.387 2.502-2.269 0.455-0.566 0.849-1.181 1.183-1.833 0.749-1.461 1.179-3.111 1.179-4.862 0-3.428-1.624-6.478-4.138-8.438z"></path>
</svg>
