<svg fill="currentColor" xmlns="http://www.w3.org/2000/svg" width="24" height="24" viewBox="0 0 24 24">
<path d="M11.0375 11.8056C12.5949 11.8056 13.8573 10.5431 13.8573 8.98579C13.8573 7.42847 12.5949 6.16602 11.0375 6.16602C9.48023 6.16602 8.21777 7.42847 8.21777 8.98579C8.21777 10.5431 9.48023 11.8056 11.0375 11.8056Z" />
<path d="M5.36469 4.74695C6.57925 4.74695 7.56385 3.76236 7.56385 2.54779C7.56385 1.33323 6.57925 0.348633 5.36469 0.348633C4.15013 0.348633 3.16553 1.33323 3.16553 2.54779C3.16553 3.76236 4.15013 4.74695 5.36469 4.74695Z" />
<path d="M1.5264 11.8978C1.46431 12.1179 1.5868 12.3637 1.79947 12.4469L6.66865 14.3518C6.88132 14.435 7.08529 14.6854 7.12462 14.9104L8.00758 20.0249L8.54961 19.6169C9.2745 19.072 10.4268 19.0236 11.194 19.5069L13.4444 20.9281C13.4626 20.9307 13.5011 20.9298 13.5185 20.9277L15.3238 19.756L14.4801 17.2241C14.4077 17.0078 14.524 16.8939 14.7391 16.9705L19.6558 18.6702C20.3034 18.8946 21.1081 18.5954 21.452 18.0024L21.5294 17.8704C21.8732 17.2771 21.6295 16.6084 20.9849 16.3764L5.11412 10.6586C4.89894 10.5808 4.77402 10.3396 4.83442 10.1195L5.70911 6.93519C5.89032 6.27399 5.49848 5.6037 4.8336 5.43781L4.68878 5.40181C4.02386 5.23592 3.33082 5.63516 3.14091 6.29389L1.5264 11.8978Z" />
<path d="M23.071 20.3305L20.6256 22.1374C20.4791 22.2458 20.173 22.2549 20.0195 22.1531L17.877 20.7405C17.3259 20.3764 16.4917 20.3723 15.938 20.7326L13.7438 22.1565C13.5751 22.2648 13.2325 22.2673 13.0628 22.1606L10.7826 20.7206C10.2137 20.3624 9.37992 20.3967 8.84248 20.8009L7.07155 22.1349C6.92509 22.2458 6.62095 22.2562 6.46704 22.156L4.27328 20.733C3.69651 20.3578 2.86193 20.4078 2.33357 20.8489L0.209737 22.6203C-0.0376771 22.8263 -0.0707781 23.1937 0.134881 23.4412C0.250713 23.5794 0.41665 23.651 0.58341 23.651C0.714992 23.651 0.847785 23.6063 0.956218 23.5157L3.08048 21.7443C3.21496 21.6314 3.49054 21.6153 3.63822 21.7109L5.83241 23.1338C6.39967 23.5024 7.23425 23.4722 7.77295 23.0659L9.54426 21.7319C9.69198 21.6198 10.0027 21.6066 10.1596 21.7063L12.4398 23.1462C12.9946 23.4958 13.8271 23.4908 14.3783 23.1342L16.5725 21.7105C16.738 21.6037 17.071 21.6053 17.2345 21.7138L19.377 23.1259C19.9401 23.4987 20.7759 23.4768 21.3188 23.0755L23.7641 21.2681C24.0227 21.0765 24.0769 20.7112 23.8862 20.4526C23.6949 20.1931 23.3296 20.1385 23.071 20.3305Z" />
</svg>